<?xml version="1.0" encoding="utf-8"?>
<!-- Generator: Adobe Illustrator 21.1.0, SVG Export Plug-In . SVG Version: 6.00 Build 0)  -->
<svg version="1.1" id="Layer_1" xmlns="http://www.w3.org/2000/svg" xmlns:xlink="http://www.w3.org/1999/xlink" x="0px" y="0px"
	 viewBox="0 0 30 30" style="enable-background:new 0 0 30 30;" xml:space="preserve">
<style type="text/css">
	.st0{fill:#4285F4;}
	.st1{fill:#34A853;}
	.st2{fill:#FBBC05;}
	.st3{fill:#EA4335;}
	.st4{fill:none;}
</style>
<g>
	<g transform="translate(-11.000000, -11.000000)">
		<g id="G" transform="translate(11.000000, 11.000000)">
			<path id="Shape" class="st0" d="M24.6,15.2c0-0.7-0.1-1.4-0.2-2.1H15v3.9h5.4c-0.2,1.3-0.9,2.3-2,3v2.5h3.2
				C23.5,20.9,24.6,18.3,24.6,15.2L24.6,15.2z"/>
			<path id="Shape_1_" class="st1" d="M15,25c2.7,0,5-0.9,6.6-2.4l-3.2-2.5c-0.9,0.6-2,1-3.4,1c-2.6,0-4.8-1.8-5.6-4.1H6v2.6
				C7.7,22.8,11.1,25,15,25L15,25z"/>
			<path id="Shape_2_" class="st2" d="M9.4,16.9c-0.2-0.6-0.3-1.2-0.3-1.9c0-0.7,0.1-1.3,0.3-1.9v-2.6H6C5.4,11.8,5,13.4,5,15
				c0,1.6,0.4,3.2,1.1,4.5L9.4,16.9L9.4,16.9z"/>
			<path id="Shape_3_" class="st3" d="M15,9c1.5,0,2.8,0.5,3.8,1.5l2.9-2.9C20,6,17.7,5,15,5c-3.9,0-7.3,2.2-9,5.5l3.4,2.6
				C10.2,10.7,12.4,9,15,9L15,9z"/>
			<polygon id="Shape_4_" class="st4" points="5,5 25,5 25,25 5,25 			"/>
		</g>
	</g>
</g>
</svg>
