<?xml version="1.0" encoding="utf-8"?>
<!-- Generator: Adobe Illustrator 21.1.0, SVG Export Plug-In . SVG Version: 6.00 Build 0)  -->
<svg version="1.1" id="Layer_1" xmlns="http://www.w3.org/2000/svg" xmlns:xlink="http://www.w3.org/1999/xlink" x="0px" y="0px"
	 viewBox="0 0 50 50" style="enable-background:new 0 0 50 50;" xml:space="preserve">
<style type="text/css">
	.st0{fill:none;stroke:#c8c8c8;stroke-width:1.5;stroke-miterlimit:10;}
	.st1{fill:none;stroke:#c8c8c8;stroke-width:0.75;stroke-miterlimit:10;}
</style>
<g>
	<line class="st0" x1="12.1" y1="17.6" x2="37.9" y2="17.6"/>
	<path class="st0" d="M12.1,13.3v16.4l0,0c0.5,6.1,6.1,11,12.9,11s12.4-4.8,12.9-11l0,0V13.3"/>
	<path class="st0" d="M16.4,13.3v15.3l0,0.4c0.3,4.2,4.1,7.5,8.6,7.5s8.3-3.3,8.6-7.5l0-0.4V13.3"/>
	<path class="st0" d="M33.6,13.3V9.8l0-0.4c-0.3-3.8-4.1-6.8-8.6-6.8s-8.3,3-8.6,6.8l0,0.3v3.6"/>
	<line class="st0" x1="21.8" y1="40.6" x2="21.8" y2="47.5"/>
	<line class="st0" x1="28.2" y1="40.6" x2="28.2" y2="47.5"/>
	<line class="st0" x1="12.4" y1="47.5" x2="37.6" y2="47.5"/>
	<line class="st1" x1="25" y1="2.8" x2="25" y2="9.3"/>
	<line class="st1" x1="21.5" y1="3.3" x2="21.5" y2="7.2"/>
	<line class="st1" x1="28.5" y1="3.3" x2="28.5" y2="7.2"/>
</g>
</svg>
