<?xml version="1.0" encoding="utf-8"?>
<!-- Generator: Adobe Illustrator 21.1.0, SVG Export Plug-In . SVG Version: 6.00 Build 0)  -->
<svg version="1.1" id="Layer_1" xmlns="http://www.w3.org/2000/svg" xmlns:xlink="http://www.w3.org/1999/xlink" x="0px" y="0px"
	 viewBox="0 0 50 50" style="enable-background:new 0 0 50 50;" xml:space="preserve">
<style type="text/css">
	.st0{fill:none;stroke:#c8c8c8;stroke-width:1.5;stroke-miterlimit:10;}
</style>
<g>
	<g>
		<path class="st0" d="M41.2,2.4L29,14.7c-0.4,0.4-0.6,0.9-0.7,1.4c-0.2,1.9-0.1,6.5,5.6,5.6c0.5-0.1,1-0.3,1.3-0.7L47.5,8.7"/>
		<line class="st0" x1="44.4" y1="5.6" x2="29.7" y2="20.2"/>
		<path class="st0" d="M19.2,28L2.8,43.5c-0.4,0.3-0.4,0.9,0,1.3l2.4,2.4c0.4,0.4,0.9,0.3,1.3,0l15.5-16.4"/>
		<path class="st0" d="M25.7,21.9"/>
		<path class="st0" d="M28.1,24.2"/>
		<path class="st0" d="M19.2,28"/>
		<polyline class="st0" points="28.1,24.2 30.4,21.7 28.2,19.5 25.7,21.9 		"/>
	</g>
	<path class="st0" d="M47.2,44.3L7.1,2.9C6.7,2.6,6.2,2.6,6,3.1C5,5,3.5,10.5,5.9,13.8l16.9,17.5c0.4,0.4,1,0.4,1.3,0l1.7-1.6
		c0.4-0.4,1-0.4,1.3,0l17,17.5c0.4,0.4,1,0.4,1.3,0l1.7-1.6C47.5,45.3,47.5,44.7,47.2,44.3z"/>
</g>
</svg>
