<?xml version="1.0" encoding="utf-8"?>
<!-- Generator: Adobe Illustrator 21.1.0, SVG Export Plug-In . SVG Version: 6.00 Build 0)  -->
<svg version="1.1" id="Layer_3" xmlns="http://www.w3.org/2000/svg" xmlns:xlink="http://www.w3.org/1999/xlink" x="0px" y="0px"
	 viewBox="0 0 150 150" style="enable-background:new 0 0 150 150;" xml:space="preserve">
<style type="text/css">
	.st0{fill:#FFFFFF;stroke:#4F5B69;stroke-miterlimit:10;}
</style>
<path class="st0" d="M29.5,54.1L6.9,93c-0.1,0.1-0.1,0.3-0.1,0.4v42c0,0.6,0.4,1,1,1h133.9c0.6,0,1-0.4,1-1v-42c0-0.1,0-0.3-0.1-0.4
	l-21-38.9c-0.2-0.4-0.5-0.6-0.9-0.6H30.4C30.1,53.5,29.7,53.7,29.5,54.1z"/>
<path class="st0" d="M95.3,93.8c-0.4,0-0.8,0.3-0.9,0.7c-2.7,8.1-10.4,13.9-19.4,13.9s-16.7-5.8-19.4-13.9c-0.1-0.4-0.5-0.7-0.9-0.7
	H7.8c-0.6,0-1,0.4-1,1V136c0,0.6,0.4,1,1,1h134.4c0.6,0,1-0.4,1-1V94.8c0-0.6-0.4-1-1-1H95.3z"/>
<path class="st0" d="M85.9,69.8V14c0-0.6-0.4-1-1-1H66.2c-0.6,0-1,0.4-1,1v55.8c0,0.6-0.4,1-1,1H54.1c-0.9,0-1.3,1.1-0.7,1.7
	l21.2,21.2c0.4,0.4,1,0.4,1.4,0l20.7-21.2c0.6-0.6,0.2-1.7-0.7-1.7h-9C86.4,70.8,85.9,70.4,85.9,69.8z"/>
<path class="st0" d="M116.8,110.5c0,0-3.6-3.6-7-0.8c0,0-4.2,3.1,0.5,8.3l6,6.2c0,0,0.5,0.5,1,0l6.5-6.8c0,0,3.6-4.4,0-7.8
	C123.8,109.7,120.9,106.9,116.8,110.5z"/>
</svg>
