<?xml version="1.0" encoding="utf-8"?>
<!-- Generator: Adobe Illustrator 21.1.0, SVG Export Plug-In . SVG Version: 6.00 Build 0)  -->
<svg version="1.1" id="Layer_1" xmlns="http://www.w3.org/2000/svg" xmlns:xlink="http://www.w3.org/1999/xlink" x="0px" y="0px"
	 viewBox="0 0 28 14" style="enable-background:new 0 0 28 14;" xml:space="preserve">
<style type="text/css">
	.st0{fill:#00999E;}
</style>
<g>
	<path class="st0" d="M2.6,6.8h24.2c0.4,0,0.6,0.3,0.6,0.6v0c0,0.4-0.3,0.6-0.6,0.6H2.6C2.3,8,2,7.8,2,7.4v0C2,7,2.3,6.8,2.6,6.8z"
		/>
	<path class="st0" d="M3,6.8l3.4,2C6.7,9,6.8,9.4,6.6,9.7l0,0C6.4,10,6,10.1,5.7,9.9L2.3,8C2,7.8,1.9,7.4,2.1,7.1l0,0
		C2.3,6.8,2.7,6.7,3,6.8z"/>
	<path class="st0" d="M2.3,6.9l3.4-2C6,4.7,6.4,4.8,6.6,5.1l0,0C6.8,5.4,6.7,5.8,6.4,6L3,8C2.7,8.2,2.3,8.1,2.1,7.7l0,0
		C1.9,7.4,2,7,2.3,6.9z"/>
</g>
</svg>
