<?xml version="1.0" encoding="utf-8"?>
<!-- Generator: Adobe Illustrator 21.1.0, SVG Export Plug-In . SVG Version: 6.00 Build 0)  -->
<svg version="1.1" id="Layer_1" xmlns="http://www.w3.org/2000/svg" xmlns:xlink="http://www.w3.org/1999/xlink" x="0px" y="0px"
	 viewBox="0 0 75 50" style="enable-background:new 0 0 75 50;" xml:space="preserve">
<style type="text/css">
	.st0{fill:#00999E;}
</style>
<g>
	<path class="st0" d="M3,23h69c1.1,0,2,0.9,2,2v0c0,1.1-0.9,2-2,2H3c-1.1,0-2-0.9-2-2v0C1,23.9,1.9,23,3,23z"/>
	<path class="st0" d="M4,23.2l10.5,6.1c1,0.5,1.3,1.8,0.7,2.7l0,0c-0.5,1-1.8,1.3-2.7,0.7L2,26.7c-1-0.6-1.3-1.8-0.7-2.7l0,0
		C1.8,23,3.1,22.7,4,23.2z"/>
	<path class="st0" d="M2,23.3l10.5-6.1c1-0.6,2.2-0.2,2.7,0.7l0,0c0.5,1,0.2,2.2-0.7,2.7L4,26.8c-1,0.6-2.2,0.2-2.7-0.7l0,0
		C0.7,25.1,1.1,23.9,2,23.3z"/>
</g>
</svg>
