<?xml version="1.0" encoding="utf-8"?>
<!-- Generator: Adobe Illustrator 21.1.0, SVG Export Plug-In . SVG Version: 6.00 Build 0)  -->
<svg version="1.1" id="Layer_1" xmlns="http://www.w3.org/2000/svg" xmlns:xlink="http://www.w3.org/1999/xlink" x="0px" y="0px"
	 viewBox="0 0 50 50" style="enable-background:new 0 0 50 50;" xml:space="preserve">
<style type="text/css">
	.st0{fill:none;stroke:#C8C8C8;stroke-miterlimit:10;}
	.st1{fill:none;stroke:#C8C8C8;stroke-width:1.5;stroke-miterlimit:10;}
	.st2{fill:none;stroke:#C8C8C8;stroke-width:0.75;stroke-miterlimit:10;}
</style>
<g>
	<path class="st0" d="M21.4,42.5"/>
	<g>
		<path class="st1" d="M37.9,21.4"/>
		<path class="st1" d="M11.1,39.6l1.3,5.6l36.1-8l-1.3-5.9c-1.1-0.2-2-1.1-2.2-2.2c-0.3-1.2,0.1-2.4,1.1-3L44.7,20L38,21.4"/>
		<line class="st2" x1="18.7" y1="35.2" x2="20.4" y2="42.9"/>
	</g>
	<g>
		<path class="st1" d="M38.1,13.7c-1.1,0.2-2.2-0.3-3-1.3c-0.7-1-0.8-2.2-0.2-3.2l-3.6-4.9L1.3,26l3.8,5.3c1.1-0.2,2.2,0.3,3,1.3
			c0.7,1,0.8,2.2,0.3,3.2l3.3,4.5l30.1-21.6L38.1,13.7z"/>
		<line class="st2" x1="8.3" y1="20.4" x2="18.7" y2="34.7"/>
	</g>
</g>
</svg>
