<?xml version="1.0" encoding="utf-8"?>
<!-- Generator: Adobe Illustrator 21.1.0, SVG Export Plug-In . SVG Version: 6.00 Build 0)  -->
<svg version="1.1" id="Layer_1" xmlns="http://www.w3.org/2000/svg" xmlns:xlink="http://www.w3.org/1999/xlink" x="0px" y="0px"
	 viewBox="0 0 50 50" style="enable-background:new 0 0 50 50;" xml:space="preserve">
<style type="text/css">
	.st0{fill:none;stroke:#c8c8c8;stroke-width:1.5;stroke-miterlimit:10;}
	.st1{fill:none;stroke:#c8c8c8;stroke-width:0.75;stroke-miterlimit:10;}
</style>
<g>
	<g>
		<path class="st0" d="M42.5,11.6H5.8c-0.6,0-1-0.4-1-1V3.8c0-0.6,0.4-1,1-1h36.8c0.6,0,1,0.4,1,1v6.8
			C43.5,11.2,43.1,11.6,42.5,11.6z"/>
		<rect x="2.5" y="5.3" class="st0" width="2.3" height="3.8"/>
	</g>
	<path class="st0" d="M24.2,47.2h-2.3c-0.6,0-1-0.4-1-1v-12c0-0.6,0.4-1,1-1h2.3c0.6,0,1,0.4,1,1v12C25.2,46.7,24.7,47.2,24.2,47.2z
		"/>
	<polyline class="st0" points="43.5,7.2 47.5,7.2 47.5,16 23,20.3 23,32.7 	"/>
	<line class="st1" x1="21.2" y1="44" x2="24.8" y2="44"/>
</g>
</svg>
