<?xml version="1.0" encoding="utf-8"?>
<!-- Generator: Adobe Illustrator 21.1.0, SVG Export Plug-In . SVG Version: 6.00 Build 0)  -->
<svg version="1.1" id="Layer_1" xmlns="http://www.w3.org/2000/svg" xmlns:xlink="http://www.w3.org/1999/xlink" x="0px" y="0px"
	 viewBox="0 0 60 40" style="enable-background:new 0 0 60 40;" xml:space="preserve">
<style type="text/css">
	.st0{fill:#00999E;}
</style>
<g>
	<path class="st0" d="M2.1,18.4h55.7c0.9,0,1.6,0.7,1.6,1.6l0,0c0,0.9-0.7,1.6-1.6,1.6H2.1c-0.9,0-1.6-0.7-1.6-1.6l0,0
		C0.5,19.1,1.2,18.4,2.1,18.4z"/>
	<path class="st0" d="M2.9,18.6l8.5,4.9c0.8,0.4,1.1,1.5,0.6,2.2l0,0c-0.4,0.8-1.5,1.1-2.2,0.6l-8.5-4.8c-0.8-0.5-1.1-1.5-0.6-2.2
		l0,0C1.2,18.4,2.2,18.2,2.9,18.6z"/>
	<path class="st0" d="M1.3,18.7l8.5-4.9c0.8-0.5,1.8-0.2,2.2,0.6l0,0c0.4,0.8,0.2,1.8-0.6,2.2l-8.5,5c-0.8,0.5-1.8,0.2-2.2-0.6l0,0
		C0.3,20.1,0.6,19.1,1.3,18.7z"/>
</g>
</svg>
