<?xml version="1.0" encoding="utf-8"?>
<!-- Generator: Adobe Illustrator 21.1.0, SVG Export Plug-In . SVG Version: 6.00 Build 0)  -->
<svg version="1.1" id="Layer_1" xmlns="http://www.w3.org/2000/svg" xmlns:xlink="http://www.w3.org/1999/xlink" x="0px" y="0px"
	 viewBox="0 0 50 50" style="enable-background:new 0 0 50 50;" xml:space="preserve">
<style type="text/css">
	.st0{fill:none;stroke:#4F5B69;stroke-miterlimit:10;}
	.st1{fill:none;stroke:#4F5B69;stroke-width:1.5;stroke-miterlimit:10;}
	.st2{fill:none;stroke:#4F5B69;stroke-width:0.75;stroke-miterlimit:10;}
</style>
<g>
	<path class="st0" d="M30.7,38.9"/>
	<g>
		<path class="st1" d="M27.2,10.3"/>
		<path class="st1" d="M20.7,44.4l5.2,3.3l21.3-33.5l-5.5-3.5c-1,0.7-2.3,0.7-3.4,0c-1.1-0.7-1.7-1.9-1.5-3.1l-5.5-3.5l-4,6.2"/>
		<line class="st2" x1="23.1" y1="35.4" x2="30.2" y2="39.9"/>
	</g>
	<g>
		<path class="st1" d="M21.5,4.3c-0.7,1-1.9,1.5-3.2,1.3C17,5.4,16,4.5,15.7,3.3l-6.5-1L2.9,41.6l6.9,1.1c0.7-1,1.9-1.5,3.2-1.3
			s2.3,1.1,2.6,2.2l5.9,0.9l6.4-39.2L21.5,4.3z"/>
		<line class="st2" x1="4" y1="32" x2="22.7" y2="35"/>
	</g>
</g>
</svg>
