<?xml version="1.0" encoding="utf-8"?>
<!-- Generator: Adobe Illustrator 21.1.0, SVG Export Plug-In . SVG Version: 6.00 Build 0)  -->
<svg version="1.1" id="Layer_1" xmlns="http://www.w3.org/2000/svg" xmlns:xlink="http://www.w3.org/1999/xlink" x="0px" y="0px"
	 viewBox="0 0 150 150" style="enable-background:new 0 0 150 150;" xml:space="preserve">
<style type="text/css">
	.st0{display:none;}
	.st1{display:inline;fill:#FFFFFF;stroke:#4F5B69;stroke-miterlimit:10;}
	.st2{fill:#FFFFFF;}
	.st3{fill:#4F5B69;}
	.st4{enable-background:new    ;}
	.st5{fill:none;stroke:#4F5B69;stroke-width:0.75;stroke-miterlimit:10;}
</style>
<g id="Layer_4" class="st0">
	<path class="st1" d="M109,140.4H41c-0.6,0-1-0.4-1-1V10.6c0-0.6,0.4-1,1-1h68c0.6,0,1,0.4,1,1v128.9C110,140,109.6,140.4,109,140.4
		z"/>
	<path class="st1" d="M102.7,123.8H47.3c-0.6,0-1-0.4-1-1V28.2c0-0.6,0.4-1,1-1h55.5c0.6,0,1,0.4,1,1v94.6
		C103.7,123.4,103.3,123.8,102.7,123.8z"/>
	<path class="st1" d="M87.5,20.8h-25c-1.3,0-2.3-1-2.3-2.3l0,0c0-1.3,1-2.3,2.3-2.3h25c1.3,0,2.3,1,2.3,2.3l0,0
		C89.8,19.8,88.8,20.8,87.5,20.8z"/>
	<circle class="st1" cx="75" cy="131.2" r="3.4"/>
</g>
<g id="Layer_3" class="st0">
	<path class="st1" d="M29.5,54.1L6.9,93c-0.1,0.1-0.1,0.3-0.1,0.4v42c0,0.6,0.4,1,1,1h133.9c0.6,0,1-0.4,1-1v-42
		c0-0.1,0-0.3-0.1-0.4l-21-38.9c-0.2-0.4-0.5-0.6-0.9-0.6H30.4C30.1,53.5,29.7,53.7,29.5,54.1z"/>
	<path class="st1" d="M95.3,93.8c-0.4,0-0.8,0.3-0.9,0.7c-2.7,8.1-10.4,13.9-19.4,13.9s-16.7-5.8-19.4-13.9
		c-0.1-0.4-0.5-0.7-0.9-0.7H7.8c-0.6,0-1,0.4-1,1V136c0,0.6,0.4,1,1,1h134.4c0.6,0,1-0.4,1-1V94.8c0-0.6-0.4-1-1-1H95.3z"/>
	<path class="st1" d="M85.9,69.8V14c0-0.6-0.4-1-1-1H66.2c-0.6,0-1,0.4-1,1v55.8c0,0.6-0.4,1-1,1H54.1c-0.9,0-1.3,1.1-0.7,1.7
		l21.2,21.2c0.4,0.4,1,0.4,1.4,0l20.7-21.2c0.6-0.6,0.2-1.7-0.7-1.7h-9C86.4,70.8,85.9,70.4,85.9,69.8z"/>
	<path class="st1" d="M116.8,110.5c0,0-3.6-3.6-7-0.8c0,0-4.2,3.1,0.5,8.3l6,6.2c0,0,0.5,0.5,1,0l6.5-6.8c0,0,3.6-4.4,0-7.8
		C123.8,109.7,120.9,106.9,116.8,110.5z"/>
</g>
<g>
	<rect x="7.5" y="27.7" class="st2" width="124.5" height="102.1"/>
	<path class="st3" d="M132.5,130.3H7V27.2h125.5V130.3z M8,129.3h123.5V28.2H8V129.3z"/>
</g>
<g>
	<rect x="2" y="21.7" class="st2" width="124.5" height="102.1"/>
	<path class="st3" d="M127,124.3H1.5V21.2H127V124.3z M2.5,123.3H126V22.2H2.5V123.3z"/>
</g>
<g>
	<rect x="2" y="21.7" class="st2" width="124.5" height="24.6"/>
	<path class="st3" d="M127,46.8H1.5V21.2H127V46.8z M2.5,45.8H126V22.2H2.5V45.8z"/>
</g>
<g>
	<path class="st2" d="M48.4,21.1c0,0-2.2-7.6-10.4-7.1c0,0-5.5-0.5-9.8,7.1v14.7c0,0,1.1,5.5,6,6h6.6c0,0,2.2-1.1,0-2.7
		c0,0-3.8,0.5-4.4-3.3v-13c0,0,0-2.7,3.8-2.2l2.7,1.6h5.5C48.4,22.2,48.4,21.1,48.4,21.1z"/>
	<path class="st3" d="M40.9,42.3h-6.7c-5.3-0.5-6.5-6.3-6.5-6.4l0-14.9l0.1-0.1c4.4-7.8,10-7.4,10.3-7.4c8.4-0.5,10.8,7.4,10.8,7.5
		l0,0.1v1.6h-6.1L40,21.1c-1.2-0.1-2,0-2.5,0.5c-0.6,0.5-0.6,1.2-0.6,1.2v13c0.5,3.2,3.7,2.8,3.8,2.8l0.2,0l0.2,0.1
		c0.8,0.6,1.2,1.3,1.2,1.9c-0.1,1-1.1,1.6-1.2,1.6L40.9,42.3z M28.7,21.2v14.6c0,0.1,1.1,5,5.6,5.5l6.4,0c0.2-0.1,0.6-0.4,0.6-0.8
		c0-0.3-0.2-0.6-0.6-0.9c-1.5,0.1-4.2-0.5-4.7-3.7l0-13.1c0,0,0-1.2,0.9-2c0.8-0.7,1.9-0.9,3.4-0.7l0.2,0.1l2.6,1.5h4.9v-0.5
		c-0.2-0.8-2.5-7.1-9.9-6.7C37.7,14.5,32.8,14.2,28.7,21.2z"/>
</g>
<g>
	<path class="st2" d="M102.4,21.1c0,0-2.2-7.6-10.4-7.1c0,0-5.5-0.5-9.8,7.1v14.7c0,0,1.1,5.5,6,6h6.6c0,0,2.2-1.1,0-2.7
		c0,0-3.8,0.5-4.4-3.3v-13c0,0,0-2.7,3.8-2.2l2.7,1.6h5.5C102.4,22.2,102.4,21.1,102.4,21.1z"/>
	<path class="st3" d="M94.9,42.3h-6.7c-5.3-0.5-6.5-6.3-6.5-6.4l0-14.9l0.1-0.1c4.4-7.8,10.1-7.4,10.3-7.4
		c8.4-0.5,10.8,7.4,10.8,7.5l0,0.1v1.6h-6.1L94,21.1c-1.2-0.1-2,0-2.5,0.5c-0.6,0.5-0.6,1.2-0.6,1.2v13c0.5,3.2,3.7,2.8,3.8,2.8
		l0.2,0l0.2,0.1c0.8,0.6,1.2,1.3,1.2,1.9c-0.1,1-1.1,1.6-1.2,1.6L94.9,42.3z M82.7,21.2v14.6c0,0.1,1.1,5,5.6,5.5l6.4,0
		c0.2-0.1,0.6-0.4,0.6-0.8c0-0.3-0.2-0.6-0.6-0.9c-1.5,0.1-4.2-0.5-4.7-3.7l0-13.1c0,0,0-1.2,0.9-2c0.8-0.7,1.9-0.9,3.4-0.7l0.2,0.1
		l2.6,1.5h4.9v-0.5c-0.2-0.8-2.5-7.1-9.9-6.7C91.7,14.5,86.8,14.2,82.7,21.2z"/>
</g>
<g>
	<circle class="st2" cx="126.8" cy="120.5" r="22"/>
	<path class="st3" d="M126.8,143c-12.4,0-22.5-10.1-22.5-22.5S114.4,98,126.8,98s22.5,10.1,22.5,22.5S139.2,143,126.8,143z
		 M126.8,99c-11.9,0-21.5,9.6-21.5,21.5s9.6,21.5,21.5,21.5s21.5-9.6,21.5-21.5S138.7,99,126.8,99z"/>
</g>
<g>
	<g>
		<path class="st3" d="M49.9,57.5L49.9,57.5l-1,0.5l-0.1-0.6l1.2-0.6h0.6v5.5h-0.7V57.5z"/>
	</g>
</g>
<g>
	<g>
		<path class="st3" d="M62.8,62.3v-0.5l0.6-0.6c1.4-1.3,2.1-2.1,2.1-2.9c0-0.6-0.3-1.1-1.1-1.1c-0.5,0-0.9,0.3-1.2,0.5L63,57.2
			c0.4-0.3,0.9-0.6,1.6-0.6c1.2,0,1.7,0.8,1.7,1.6c0,1-0.7,1.9-1.9,3L64,61.6l0,0h2.5v0.6L62.8,62.3L62.8,62.3z"/>
	</g>
</g>
<g>
	<g>
		<path class="st3" d="M77.1,61.5c0.2,0.1,0.7,0.3,1.2,0.3c1,0,1.3-0.6,1.3-1.1c0-0.8-0.7-1.1-1.4-1.1h-0.4V59h0.4
			c0.5,0,1.2-0.3,1.2-0.9c0-0.4-0.3-0.8-1-0.8c-0.4,0-0.9,0.2-1.1,0.4l-0.2-0.5c0.3-0.2,0.9-0.4,1.5-0.4c1.1,0,1.6,0.6,1.6,1.3
			c0,0.6-0.3,1.1-1,1.3l0,0c0.7,0.1,1.2,0.6,1.2,1.4c0,0.9-0.7,1.7-2,1.7c-0.6,0-1.2-0.2-1.4-0.4L77.1,61.5z"/>
	</g>
</g>
<g>
	<g>
		<path class="st3" d="M93.6,62.3v-1.5H91v-0.5l2.5-3.5h0.8v3.4h0.8v0.6h-0.8v1.5H93.6z M93.6,60.2v-1.9c0-0.3,0-0.6,0-0.9l0,0
			c-0.2,0.3-0.3,0.6-0.5,0.8l-1.4,1.9l0,0h1.9V60.2z"/>
	</g>
</g>
<g class="st4">
	<path class="st3" d="M120.1,120.1c1-0.4,4.3-2,5-5.4c-0.5,0.6-1.7,1.8-3.2,1.8c-1.4,0-2.5-1.1-2.5-2.8c0-2.2,1.7-3.9,3.5-3.9
		c1.7,0,2.6,1.5,2.6,3.4c0,4.7-4.2,6.8-5.3,7.2c0,0-0.1,0-0.1,0l0-0.1C120,120.2,120.1,120.1,120.1,120.1z M125.2,114.2
		c0-0.1,0.1-0.5,0.1-1c0-1.8-0.8-3.2-2.4-3.2c-1.7,0-3.3,1.6-3.3,3.7c0,1.5,1,2.5,2.3,2.5C123.9,116.2,125.1,114.3,125.2,114.2z"/>
	<path class="st3" d="M127.5,116.3c0-3.9,1.6-6.5,4.2-6.5c1.7,0,2.7,1.5,2.7,3.9c0,3.9-1.6,6.5-4.2,6.5
		C128.4,120.3,127.5,118.7,127.5,116.3z M134,113.7c0-2.2-0.8-3.7-2.4-3.7c-2.4,0-3.8,2.5-3.8,6.3c0,2.2,0.8,3.7,2.4,3.7
		C132.6,120,134,117.5,134,113.7z"/>
</g>
<g class="st4">
	<path class="st5" d="M120.1,120.1c1-0.4,4.3-2,5-5.4c-0.5,0.6-1.7,1.8-3.2,1.8c-1.4,0-2.5-1.1-2.5-2.8c0-2.2,1.7-3.9,3.5-3.9
		c1.7,0,2.6,1.5,2.6,3.4c0,4.7-4.2,6.8-5.3,7.2c0,0-0.1,0-0.1,0l0-0.1C120,120.2,120.1,120.1,120.1,120.1z M125.2,114.2
		c0-0.1,0.1-0.5,0.1-1c0-1.8-0.8-3.2-2.4-3.2c-1.7,0-3.3,1.6-3.3,3.7c0,1.5,1,2.5,2.3,2.5C123.9,116.2,125.1,114.3,125.2,114.2z"/>
	<path class="st5" d="M127.5,116.3c0-3.9,1.6-6.5,4.2-6.5c1.7,0,2.7,1.5,2.7,3.9c0,3.9-1.6,6.5-4.2,6.5
		C128.4,120.3,127.5,118.7,127.5,116.3z M134,113.7c0-2.2-0.8-3.7-2.4-3.7c-2.4,0-3.8,2.5-3.8,6.3c0,2.2,0.8,3.7,2.4,3.7
		C132.6,120,134,117.5,134,113.7z"/>
</g>
<g>
	<g class="st4">
		<path class="st3" d="M120.1,124.7C120.1,124.6,120.1,124.6,120.1,124.7l1.6-0.1c1.4,0,2.4,1.2,2.4,2.7c0,1.9-1.5,3.4-3.2,3.4h-1.6
			c0,0,0,0,0-0.1L120.1,124.7z M120.9,130.6c1.6,0,3.1-1.5,3.1-3.3c0-1.4-0.9-2.5-2.2-2.5h-1.5l-0.8,5.8H120.9z"/>
		<path class="st3" d="M126.7,127.2c0.6,0,0.9,0.3,1.1,0.5l0.1-0.3c0,0,0-0.1,0.1-0.1h0c0,0,0.1,0,0,0.1l-0.5,3.4c0,0,0,0.1-0.1,0.1
			h0c0,0-0.1,0,0-0.1l0.1-0.4c-0.2,0.2-0.7,0.6-1.2,0.6c-0.8,0-1.3-0.7-1.3-1.6C124.9,128.1,125.7,127.2,126.7,127.2z M126.2,130.7
			c0.6,0,1-0.4,1.2-0.7l0.3-2.1c0-0.1-0.3-0.6-1-0.6c-0.9,0-1.6,0.8-1.6,1.9C125,130,125.5,130.7,126.2,130.7z"/>
		<path class="st3" d="M128.8,127.3C128.8,127.2,128.8,127.2,128.8,127.3L128.8,127.3c0.1-0.1,0.1-0.1,0.1-0.1l1,3.3l1.8-3.3
			c0,0,0,0,0.1,0l0,0c0,0,0,0,0,0.1l-3.4,6.1c0,0,0,0-0.1,0l0,0c0,0,0,0,0-0.1l1.5-2.6L128.8,127.3z"/>
		<path class="st3" d="M132.2,130.4L132.2,130.4c0.1-0.1,0.1-0.1,0.1-0.1c0.1,0.1,0.4,0.4,0.9,0.4c0.6,0,1.1-0.3,1.1-0.8
			c0-0.4-0.4-0.6-1-0.8c-0.6-0.2-0.9-0.5-0.9-0.9c0-0.4,0.4-0.9,1.2-0.9c0.5,0,0.7,0.2,0.9,0.3c0,0,0,0,0,0.1l0,0c0,0,0,0-0.1,0
			c-0.1-0.1-0.4-0.3-0.8-0.3c-0.7,0-1,0.4-1,0.8c0,0.4,0.3,0.6,0.8,0.8c0.5,0.2,1,0.4,1,1c0,0.6-0.6,1-1.3,1
			C132.6,130.8,132.3,130.6,132.2,130.4C132.2,130.4,132.1,130.4,132.2,130.4z"/>
	</g>
	<g class="st4">
		<path class="st5" d="M120.1,124.7C120.1,124.6,120.1,124.6,120.1,124.7l1.6-0.1c1.4,0,2.4,1.2,2.4,2.7c0,1.9-1.5,3.4-3.2,3.4h-1.6
			c0,0,0,0,0-0.1L120.1,124.7z M120.9,130.6c1.6,0,3.1-1.5,3.1-3.3c0-1.4-0.9-2.5-2.2-2.5h-1.5l-0.8,5.8H120.9z"/>
		<path class="st5" d="M126.7,127.2c0.6,0,0.9,0.3,1.1,0.5l0.1-0.3c0,0,0-0.1,0.1-0.1h0c0,0,0.1,0,0,0.1l-0.5,3.4c0,0,0,0.1-0.1,0.1
			h0c0,0-0.1,0,0-0.1l0.1-0.4c-0.2,0.2-0.7,0.6-1.2,0.6c-0.8,0-1.3-0.7-1.3-1.6C124.9,128.1,125.7,127.2,126.7,127.2z M126.2,130.7
			c0.6,0,1-0.4,1.2-0.7l0.3-2.1c0-0.1-0.3-0.6-1-0.6c-0.9,0-1.6,0.8-1.6,1.9C125,130,125.5,130.7,126.2,130.7z"/>
		<path class="st5" d="M128.8,127.3C128.8,127.2,128.8,127.2,128.8,127.3L128.8,127.3c0.1-0.1,0.1-0.1,0.1-0.1l1,3.3l1.8-3.3
			c0,0,0,0,0.1,0l0,0c0,0,0,0,0,0.1l-3.4,6.1c0,0,0,0-0.1,0l0,0c0,0,0,0,0-0.1l1.5-2.6L128.8,127.3z"/>
		<path class="st5" d="M132.2,130.4L132.2,130.4c0.1-0.1,0.1-0.1,0.1-0.1c0.1,0.1,0.4,0.4,0.9,0.4c0.6,0,1.1-0.3,1.1-0.8
			c0-0.4-0.4-0.6-1-0.8c-0.6-0.2-0.9-0.5-0.9-0.9c0-0.4,0.4-0.9,1.2-0.9c0.5,0,0.7,0.2,0.9,0.3c0,0,0,0,0,0.1l0,0c0,0,0,0-0.1,0
			c-0.1-0.1-0.4-0.3-0.8-0.3c-0.7,0-1,0.4-1,0.8c0,0.4,0.3,0.6,0.8,0.8c0.5,0.2,1,0.4,1,1c0,0.6-0.6,1-1.3,1
			C132.6,130.8,132.3,130.6,132.2,130.4C132.2,130.4,132.1,130.4,132.2,130.4z"/>
	</g>
</g>
<g>
	<g>
		<path class="st3" d="M109.1,57.4H107l-0.2,1.4c0.1,0,0.2,0,0.5,0c0.4,0,0.9,0.1,1.2,0.3c0.4,0.2,0.8,0.7,0.8,1.4
			c0,1.1-0.9,1.9-2.1,1.9c-0.6,0-1.1-0.2-1.4-0.3l0.2-0.6c0.2,0.1,0.7,0.3,1.2,0.3c0.7,0,1.3-0.5,1.3-1.2s-0.5-1.2-1.6-1.2
			c-0.3,0-0.6,0-0.8,0.1l0.4-2.7h2.7L109.1,57.4L109.1,57.4z"/>
	</g>
</g>
<g>
	<g>
		<path class="st3" d="M48.2,73.4c0-0.7,0.4-1.2,1.1-1.5l0,0c-0.6-0.3-0.9-0.8-0.9-1.2c0-0.9,0.7-1.5,1.7-1.5c1.1,0,1.6,0.7,1.6,1.4
			c0,0.5-0.2,1-0.9,1.3l0,0c0.7,0.3,1.1,0.8,1.1,1.4c0,1-0.8,1.6-1.9,1.6C48.9,74.9,48.2,74.2,48.2,73.4z M51.2,73.4
			c0-0.7-0.5-1-1.2-1.2c-0.6,0.2-1,0.6-1,1.1c0,0.6,0.4,1.1,1.1,1.1C50.7,74.4,51.2,74,51.2,73.4z M49.1,70.6c0,0.6,0.4,0.9,1.1,1
			c0.5-0.2,0.8-0.5,0.8-1c0-0.4-0.3-0.9-0.9-0.9C49.4,69.7,49.1,70.1,49.1,70.6z"/>
	</g>
</g>
<g>
	<g>
		<path class="st3" d="M36.8,69.3v0.5l-2.4,5h-0.8l2.4-4.9l0,0h-2.7v-0.6H36.8z"/>
	</g>
</g>
<g>
	<g>
		<path class="st3" d="M22,69.8c-0.2,0-0.3,0-0.6,0c-1.2,0.2-1.8,1.1-1.9,2l0,0c0.3-0.4,0.7-0.6,1.3-0.6c1,0,1.7,0.7,1.7,1.8
			c0,1-0.7,2-1.8,2c-1.2,0-2-0.9-2-2.4c0-1.1,0.4-2,0.9-2.5s1.1-0.7,1.8-0.8c0.2,0,0.4,0,0.5,0v0.5H22z M21.8,73
			c0-0.8-0.5-1.3-1.1-1.3c-0.5,0-0.9,0.3-1.1,0.7c-0.1,0.1-0.1,0.2-0.1,0.3c0,0.9,0.4,1.6,1.2,1.6C21.3,74.3,21.8,73.8,21.8,73z"/>
	</g>
</g>
<g>
	<g>
		<path class="st3" d="M63.2,74.3c0.2,0,0.3,0,0.6,0c0.4-0.1,0.8-0.2,1.2-0.5s0.6-0.8,0.7-1.5l0,0c-0.3,0.4-0.8,0.6-1.3,0.6
			c-1,0-1.6-0.8-1.6-1.7c0-1,0.8-2,1.9-2c1.1,0,1.8,0.9,1.8,2.3c0,1.2-0.4,2.1-1,2.6c-0.4,0.4-1,0.7-1.6,0.7c-0.3,0-0.5,0.1-0.7,0
			V74.3z M63.5,71.1c0,0.7,0.4,1.2,1.1,1.2c0.5,0,0.9-0.2,1.1-0.6c0-0.1,0.1-0.2,0.1-0.3c0-0.9-0.3-1.7-1.1-1.7
			C63.9,69.8,63.5,70.3,63.5,71.1z"/>
	</g>
</g>
<g>
	<g>
		<path class="st3" d="M75.3,70L75.3,70l-1,0.5l-0.1-0.6l1.2-0.6H76v5.5h-0.7V70z"/>
	</g>
	<g>
		<path class="st3" d="M81.7,72c0,1.9-0.7,2.9-1.9,2.9c-1.1,0-1.8-1-1.8-2.8c0-1.9,0.8-2.9,1.9-2.9C81.1,69.2,81.7,70.2,81.7,72z
			 M78.7,72.1c0,1.4,0.4,2.3,1.1,2.3c0.8,0,1.1-0.9,1.1-2.3s-0.3-2.3-1.1-2.3C79.2,69.8,78.7,70.6,78.7,72.1z"/>
	</g>
</g>
<g>
	<g>
		<path class="st3" d="M90.7,70L90.7,70l-1,0.5l-0.1-0.6l1.2-0.6h0.6v5.5h-0.7V70z"/>
	</g>
	<g>
		<path class="st3" d="M95.1,70L95.1,70l-1,0.5L94,69.9l1.2-0.6h0.6v5.5h-0.7V70z"/>
	</g>
</g>
<g>
	<g>
		<path class="st3" d="M105.2,70L105.2,70l-1,0.5l-0.1-0.6l1.2-0.6h0.6v5.5h-0.7V70z"/>
	</g>
	<g>
		<path class="st3" d="M107.9,74.8v-0.5l0.6-0.6c1.4-1.3,2.1-2.1,2.1-2.9c0-0.6-0.3-1.1-1.1-1.1c-0.5,0-0.9,0.3-1.2,0.5l-0.2-0.5
			c0.4-0.3,0.9-0.6,1.6-0.6c1.2,0,1.7,0.8,1.7,1.6c0,1-0.7,1.9-1.9,3l-0.4,0.4l0,0h2.5v0.6L107.9,74.8L107.9,74.8z"/>
	</g>
</g>
<g>
	<g>
		<path class="st3" d="M47.6,82.9L47.6,82.9l-1,0.5l-0.1-0.6l1.2-0.6h0.6v5.5h-0.7V82.9z"/>
	</g>
	<g>
		<path class="st3" d="M53.7,82.8h-2.1l-0.2,1.4c0.1,0,0.2,0,0.5,0c0.4,0,0.9,0.1,1.2,0.3c0.4,0.2,0.8,0.7,0.8,1.4
			c0,1.1-0.9,1.9-2.1,1.9c-0.6,0-1.1-0.2-1.4-0.3l0.2-0.6c0.2,0.1,0.7,0.3,1.2,0.3c0.7,0,1.3-0.5,1.3-1.2s-0.5-1.2-1.6-1.2
			c-0.3,0-0.6,0-0.8,0.1l0.4-2.7h2.7v0.6H53.7z"/>
	</g>
</g>
<g>
	<g>
		<path class="st3" d="M32.2,82.9L32.2,82.9l-1,0.5l-0.1-0.6l1.2-0.6H33v5.5h-0.7L32.2,82.9L32.2,82.9z"/>
	</g>
	<g>
		<path class="st3" d="M37.3,87.7v-1.5h-2.6v-0.5l2.5-3.5H38v3.4h0.8v0.6H38v1.5H37.3z M37.3,85.6v-1.9c0-0.3,0-0.6,0-0.9l0,0
			c-0.2,0.3-0.3,0.6-0.5,0.8l-1.4,1.9l0,0L37.3,85.6L37.3,85.6z"/>
	</g>
</g>
<g>
	<g>
		<path class="st3" d="M18.2,82.9L18.2,82.9l-1,0.5l-0.1-0.6l1.2-0.6h0.6v5.5h-0.7V82.9z"/>
	</g>
	<g>
		<path class="st3" d="M21.1,86.9c0.2,0.1,0.7,0.3,1.2,0.3c1,0,1.3-0.6,1.3-1.1c0-0.8-0.7-1.1-1.4-1.1h-0.4v-0.6h0.4
			c0.5,0,1.2-0.3,1.2-0.9c0-0.4-0.3-0.8-1-0.8c-0.4,0-0.9,0.2-1.1,0.4l-0.2-0.5c0.3-0.2,0.9-0.4,1.5-0.4c1.1,0,1.6,0.6,1.6,1.3
			c0,0.6-0.3,1.1-1,1.3l0,0c0.7,0.1,1.2,0.6,1.2,1.4c0,0.9-0.7,1.7-2,1.7c-0.6,0-1.2-0.2-1.4-0.4L21.1,86.9z"/>
	</g>
</g>
<g>
	<g>
		<path class="st3" d="M61.8,82.9L61.8,82.9l-1,0.5l-0.1-0.6l1.2-0.6h0.6v5.5h-0.7V82.9z"/>
	</g>
	<g>
		<path class="st3" d="M67.7,82.7c-0.2,0-0.3,0-0.6,0c-1.2,0.2-1.8,1.1-1.9,2l0,0c0.3-0.3,0.7-0.6,1.3-0.6c1,0,1.7,0.7,1.7,1.8
			c0,1-0.7,2-1.8,2c-1.2,0-2-0.9-2-2.4c0-1.1,0.4-2,0.9-2.5s1.1-0.7,1.8-0.8c0.2,0,0.4,0,0.5,0L67.7,82.7L67.7,82.7z M67.5,85.9
			c0-0.8-0.5-1.3-1.1-1.3c-0.5,0-0.9,0.3-1.1,0.7c-0.1,0.1-0.1,0.2-0.1,0.3c0,0.9,0.4,1.6,1.2,1.6C67,87.2,67.5,86.7,67.5,85.9z"/>
	</g>
</g>
<g>
	<g>
		<path class="st3" d="M76,82.9L76,82.9l-1,0.5l-0.1-0.6l1.2-0.6h0.6v5.5H76V82.9z"/>
	</g>
	<g>
		<path class="st3" d="M82.3,82.2v0.5l-2.4,5h-0.8l2.4-4.9l0,0h-2.7v-0.6H82.3z"/>
	</g>
</g>
<g>
	<g>
		<path class="st3" d="M46.1,100.3v-0.5l0.6-0.6c1.4-1.3,2.1-2.1,2.1-2.9c0-0.6-0.3-1.1-1.1-1.1c-0.5,0-0.9,0.3-1.2,0.5l-0.2-0.5
			c0.4-0.3,0.9-0.6,1.6-0.6c1.2,0,1.7,0.8,1.7,1.6c0,1-0.7,1.9-1.9,3l-0.4,0.4l0,0h2.5v0.6L46.1,100.3L46.1,100.3z"/>
	</g>
	<g>
		<path class="st3" d="M50.4,100.3v-0.5l0.6-0.6c1.4-1.3,2.1-2.1,2.1-2.9c0-0.6-0.3-1.1-1.1-1.1c-0.5,0-0.9,0.3-1.2,0.5l-0.2-0.5
			c0.4-0.3,0.9-0.6,1.6-0.6c1.2,0,1.7,0.8,1.7,1.6c0,1-0.7,1.9-1.9,3l-0.4,0.4l0,0H54v0.6L50.4,100.3L50.4,100.3z"/>
	</g>
</g>
<g>
	<g>
		<path class="st3" d="M31.5,100.3v-0.5l0.6-0.6c1.4-1.3,2.1-2.1,2.1-2.9c0-0.6-0.3-1.1-1.1-1.1c-0.5,0-0.9,0.3-1.2,0.5l-0.2-0.5
			c0.4-0.3,0.9-0.6,1.6-0.6c1.2,0,1.7,0.8,1.7,1.6c0,1-0.7,1.9-1.9,3l-0.4,0.4l0,0h2.5v0.6L31.5,100.3L31.5,100.3z"/>
	</g>
	<g>
		<path class="st3" d="M37.5,95.5L37.5,95.5l-1,0.5l-0.1-0.6l1.2-0.6h0.6v5.5h-0.7V95.5z"/>
	</g>
</g>
<g>
	<g>
		<path class="st3" d="M16.6,100.3v-0.5l0.6-0.6c1.4-1.3,2.1-2.1,2.1-2.9c0-0.6-0.3-1.1-1.1-1.1c-0.5,0-0.9,0.3-1.2,0.5l-0.2-0.5
			c0.4-0.3,0.9-0.6,1.6-0.6c1.2,0,1.7,0.8,1.7,1.6c0,1-0.7,1.9-1.9,3l-0.4,0.4l0,0h2.5v0.6L16.6,100.3L16.6,100.3z"/>
	</g>
	<g>
		<path class="st3" d="M24.7,97.5c0,1.9-0.7,2.9-1.9,2.9c-1.1,0-1.8-1-1.8-2.8c0-1.9,0.8-2.9,1.9-2.9C24,94.7,24.7,95.7,24.7,97.5z
			 M21.7,97.6c0,1.4,0.4,2.3,1.1,2.3c0.8,0,1.1-0.9,1.1-2.3s-0.3-2.3-1.1-2.3C22.2,95.3,21.7,96.1,21.7,97.6z"/>
	</g>
</g>
<g>
	<g>
		<path class="st3" d="M60.6,100.3v-0.5l0.6-0.6c1.4-1.3,2.1-2.1,2.1-2.9c0-0.6-0.3-1.1-1.1-1.1c-0.5,0-0.9,0.3-1.2,0.5l-0.2-0.5
			c0.4-0.3,0.9-0.6,1.6-0.6c1.2,0,1.7,0.8,1.7,1.6c0,1-0.7,1.9-1.9,3l-0.4,0.4l0,0h2.5v0.6L60.6,100.3L60.6,100.3z"/>
	</g>
	<g>
		<path class="st3" d="M65.1,99.5c0.2,0.1,0.7,0.3,1.2,0.3c1,0,1.3-0.6,1.3-1.1c0-0.8-0.7-1.1-1.4-1.1h-0.4V97h0.4
			c0.5,0,1.2-0.3,1.2-0.9c0-0.4-0.3-0.8-1-0.8c-0.4,0-0.9,0.2-1.1,0.4l-0.2-0.5c0.3-0.2,0.9-0.4,1.5-0.4c1.1,0,1.6,0.6,1.6,1.3
			c0,0.6-0.3,1.1-1,1.3l0,0c0.7,0.1,1.2,0.6,1.2,1.4c0,0.9-0.7,1.7-2,1.7c-0.6,0-1.2-0.2-1.4-0.4L65.1,99.5z"/>
	</g>
</g>
<g>
	<g>
		<path class="st3" d="M46.1,113.3v-0.5l0.6-0.6c1.4-1.3,2.1-2.1,2.1-2.9c0-0.6-0.3-1.1-1.1-1.1c-0.5,0-0.9,0.3-1.2,0.5l-0.2-0.5
			c0.4-0.3,0.9-0.6,1.6-0.6c1.2,0,1.7,0.8,1.7,1.6c0,1-0.7,1.9-1.9,3l-0.4,0.4l0,0h2.5v0.6L46.1,113.3L46.1,113.3z"/>
	</g>
	<g>
		<path class="st3" d="M50.9,112.7c0.2,0,0.3,0,0.6,0c0.4-0.1,0.8-0.2,1.2-0.5s0.6-0.8,0.7-1.5l0,0c-0.3,0.4-0.8,0.6-1.3,0.6
			c-1,0-1.6-0.8-1.6-1.7c0-1,0.8-2,1.9-2c1.1,0,1.8,0.9,1.8,2.3c0,1.2-0.4,2.1-1,2.6c-0.4,0.4-1,0.7-1.6,0.7c-0.3,0-0.5,0.1-0.7,0
			C50.9,113.2,50.9,112.7,50.9,112.7z M51.1,109.5c0,0.7,0.4,1.2,1.1,1.2c0.5,0,0.9-0.2,1.1-0.6c0-0.1,0.1-0.2,0.1-0.3
			c0-0.9-0.3-1.7-1.1-1.7C51.6,108.2,51.1,108.7,51.1,109.5z"/>
	</g>
</g>
<g>
	<g>
		<path class="st3" d="M31.5,113.3v-0.5l0.6-0.6c1.4-1.3,2.1-2.1,2.1-2.9c0-0.6-0.3-1.1-1.1-1.1c-0.5,0-0.9,0.3-1.2,0.5l-0.2-0.5
			c0.4-0.3,0.9-0.6,1.6-0.6c1.2,0,1.7,0.8,1.7,1.6c0,1-0.7,1.9-1.9,3l-0.4,0.4l0,0h2.5v0.6L31.5,113.3L31.5,113.3z"/>
	</g>
	<g>
		<path class="st3" d="M35.8,111.8c0-0.7,0.4-1.2,1.1-1.5l0,0c-0.6-0.3-0.9-0.8-0.9-1.2c0-0.9,0.7-1.5,1.7-1.5
			c1.1,0,1.6,0.7,1.6,1.4c0,0.5-0.2,1-0.9,1.3l0,0c0.7,0.3,1.1,0.8,1.1,1.4c0,1-0.8,1.6-1.9,1.6C36.5,113.3,35.8,112.7,35.8,111.8z
			 M38.8,111.8c0-0.7-0.5-1-1.2-1.2c-0.6,0.2-1,0.6-1,1.1c0,0.6,0.4,1.1,1.1,1.1C38.4,112.8,38.8,112.4,38.8,111.8z M36.8,109
			c0,0.6,0.4,0.9,1.1,1c0.5-0.2,0.8-0.5,0.8-1c0-0.4-0.3-0.9-0.9-0.9C37.1,108.2,36.8,108.6,36.8,109z"/>
	</g>
</g>
<g>
	<g>
		<path class="st3" d="M16.6,113.3v-0.5l0.6-0.6c1.4-1.3,2.1-2.1,2.1-2.9c0-0.6-0.3-1.1-1.1-1.1c-0.5,0-0.9,0.3-1.2,0.5l-0.2-0.5
			c0.4-0.3,0.9-0.6,1.6-0.6c1.2,0,1.7,0.8,1.7,1.6c0,1-0.7,1.9-1.9,3l-0.4,0.4l0,0h2.5v0.6L16.6,113.3L16.6,113.3z"/>
	</g>
	<g>
		<path class="st3" d="M24.6,107.7v0.5l-2.4,5h-0.8l2.4-4.9l0,0h-2.7v-0.6H24.6z"/>
	</g>
</g>
<g>
	<g>
		<path class="st3" d="M60.8,112.4c0.2,0.1,0.7,0.3,1.2,0.3c1,0,1.3-0.6,1.3-1.1c0-0.8-0.7-1.1-1.4-1.1h-0.4V110h0.4
			c0.5,0,1.2-0.3,1.2-0.9c0-0.4-0.3-0.8-1-0.8c-0.4,0-0.9,0.2-1.1,0.4l-0.2-0.5c0.3-0.2,0.9-0.4,1.5-0.4c1.1,0,1.6,0.6,1.6,1.3
			c0,0.6-0.3,1.1-1,1.3l0,0c0.7,0.1,1.2,0.6,1.2,1.4c0,0.9-0.7,1.7-2,1.7c-0.6,0-1.2-0.2-1.4-0.4L60.8,112.4z"/>
	</g>
	<g>
		<path class="st3" d="M68.6,110.4c0,1.9-0.7,2.9-1.9,2.9c-1.1,0-1.8-1-1.8-2.8c0-1.9,0.8-2.9,1.9-2.9
			C68,107.6,68.6,108.7,68.6,110.4z M65.6,110.5c0,1.4,0.4,2.3,1.1,2.3c0.8,0,1.1-0.9,1.1-2.3s-0.3-2.3-1.1-2.3
			C66.1,108.2,65.6,109,65.6,110.5z"/>
	</g>
</g>
<g>
	<g>
		<path class="st3" d="M74.8,100.3v-0.5l0.6-0.6c1.4-1.3,2.1-2.1,2.1-2.9c0-0.6-0.3-1.1-1.1-1.1c-0.5,0-0.9,0.3-1.2,0.5L75,95.2
			c0.4-0.3,0.9-0.6,1.6-0.6c1.2,0,1.7,0.8,1.7,1.6c0,1-0.7,1.9-1.9,3L76,99.6l0,0h2.5v0.6L74.8,100.3L74.8,100.3z"/>
	</g>
	<g>
		<path class="st3" d="M81.5,100.3v-1.5h-2.6v-0.5l2.5-3.5h0.8v3.4H83v0.6h-0.8v1.5H81.5z M81.5,98.2v-1.9c0-0.3,0-0.6,0-0.9l0,0
			c-0.2,0.3-0.3,0.6-0.5,0.8l-1.4,1.9l0,0L81.5,98.2L81.5,98.2z"/>
	</g>
</g>
<g>
	<g>
		<path class="st3" d="M90.2,82.9L90.2,82.9l-1,0.5l-0.1-0.6l1.2-0.6h0.6v5.5h-0.7V82.9z"/>
	</g>
	<g>
		<path class="st3" d="M92.9,86.3c0-0.7,0.4-1.2,1.1-1.5l0,0c-0.6-0.3-0.9-0.8-0.9-1.2c0-0.9,0.7-1.5,1.7-1.5c1.1,0,1.6,0.7,1.6,1.4
			c0,0.5-0.2,1-0.9,1.3l0,0c0.7,0.3,1.1,0.8,1.1,1.4c0,1-0.8,1.6-1.9,1.6C93.6,87.8,92.9,87.1,92.9,86.3z M95.8,86.3
			c0-0.7-0.5-1-1.2-1.2c-0.6,0.2-1,0.6-1,1.1c0,0.6,0.4,1.1,1.1,1.1S95.8,86.8,95.8,86.3z M93.8,83.5c0,0.6,0.4,0.9,1.1,1
			c0.5-0.2,0.8-0.5,0.8-1c0-0.4-0.3-0.9-0.9-0.9C94.1,82.6,93.8,83,93.8,83.5z"/>
	</g>
</g>
<g>
	<g>
		<path class="st3" d="M104.7,82.9L104.7,82.9l-1,0.5l-0.1-0.6l1.2-0.6h0.6v5.5h-0.7V82.9z"/>
	</g>
	<g>
		<path class="st3" d="M107.9,87.2c0.2,0,0.4,0,0.6,0c0.4-0.1,0.8-0.2,1.2-0.5c0.4-0.3,0.6-0.8,0.7-1.5l0,0
			c-0.3,0.4-0.8,0.6-1.3,0.6c-1,0-1.6-0.8-1.6-1.7c0-1,0.8-2,1.9-2s1.8,0.9,1.8,2.3c0,1.2-0.4,2.1-1,2.6c-0.4,0.4-1,0.7-1.6,0.7
			c-0.3,0-0.5,0.1-0.7,0V87.2z M108.2,84c0,0.7,0.4,1.2,1.1,1.2c0.5,0,0.9-0.2,1.1-0.6c0-0.1,0.1-0.2,0.1-0.3c0-0.9-0.3-1.7-1.1-1.7
			C108.6,82.7,108.2,83.2,108.2,84z"/>
	</g>
</g>
<g>
	<g>
		<path class="st3" d="M88.6,100.3v-0.5l0.6-0.6c1.4-1.3,2.1-2.1,2.1-2.9c0-0.6-0.3-1.1-1.1-1.1c-0.5,0-0.9,0.3-1.2,0.5l-0.2-0.5
			c0.4-0.3,0.9-0.6,1.6-0.6c1.2,0,1.7,0.8,1.7,1.6c0,1-0.7,1.9-1.9,3l-0.4,0.4l0,0h2.5v0.6L88.6,100.3L88.6,100.3z"/>
	</g>
	<g>
		<path class="st3" d="M96.2,95.4h-2.1l-0.2,1.4c0.1,0,0.2,0,0.5,0c0.4,0,0.9,0.1,1.2,0.3c0.4,0.2,0.8,0.7,0.8,1.4
			c0,1.1-0.9,1.9-2.1,1.9c-0.6,0-1.1-0.2-1.4-0.3l0.2-0.6c0.2,0.1,0.7,0.3,1.2,0.3c0.7,0,1.3-0.5,1.3-1.2s-0.5-1.2-1.6-1.2
			c-0.3,0-0.6,0-0.8,0.1l0.4-2.7h2.7L96.2,95.4L96.2,95.4z"/>
	</g>
</g>
<g>
	<g>
		<path class="st3" d="M103.1,100.3v-0.5l0.6-0.6c1.4-1.3,2.1-2.1,2.1-2.9c0-0.6-0.3-1.1-1.1-1.1c-0.5,0-0.9,0.3-1.2,0.5l-0.2-0.5
			c0.4-0.3,0.9-0.6,1.6-0.6c1.2,0,1.7,0.8,1.7,1.6c0,1-0.7,1.9-1.9,3l-0.4,0.4l0,0h2.5v0.6L103.1,100.3L103.1,100.3z"/>
	</g>
	<g>
		<path class="st3" d="M110.6,95.3c-0.2,0-0.4,0-0.6,0c-1.2,0.2-1.8,1.1-1.9,2l0,0c0.3-0.3,0.7-0.6,1.3-0.6c1,0,1.7,0.7,1.7,1.8
			c0,1-0.7,2-1.8,2c-1.2,0-2-0.9-2-2.4c0-1.1,0.4-2,0.9-2.5s1.1-0.7,1.8-0.8c0.2,0,0.4,0,0.5,0L110.6,95.3L110.6,95.3z M110.4,98.5
			c0-0.8-0.5-1.3-1.1-1.3c-0.5,0-0.9,0.3-1.1,0.7c-0.1,0.1-0.1,0.2-0.1,0.3c0,0.9,0.4,1.6,1.2,1.6C110,99.9,110.4,99.3,110.4,98.5z"
			/>
	</g>
</g>
</svg>
