<?xml version="1.0" encoding="utf-8"?>
<!-- Generator: Adobe Illustrator 21.1.0, SVG Export Plug-In . SVG Version: 6.00 Build 0)  -->
<svg version="1.1" id="Layer_1" xmlns="http://www.w3.org/2000/svg" xmlns:xlink="http://www.w3.org/1999/xlink" x="0px" y="0px"
	 viewBox="0 0 150 150" style="enable-background:new 0 0 150 150;" xml:space="preserve">
<metadata><?xpacket begin="﻿" id="W5M0MpCehiHzreSzNTczkc9d"?>
<x:xmpmeta xmlns:x="adobe:ns:meta/" x:xmptk="Adobe XMP Core 5.6-c137 79.159768, 2016/08/11-13:24:42        ">
   <rdf:RDF xmlns:rdf="http://www.w3.org/1999/02/22-rdf-syntax-ns#">
      <rdf:Description rdf:about=""
            xmlns:ExtensisFontSense="http://www.extensis.com/meta/FontSense/">
         <ExtensisFontSense:slug>
            <rdf:Bag>
               <rdf:li>
                  <rdf:Description>
                     <ExtensisFontSense:Family>Brandon Grotesque</ExtensisFontSense:Family>
                     <ExtensisFontSense:Version>001.000</ExtensisFontSense:Version>
                     <ExtensisFontSense:OutlineFileSize>0</ExtensisFontSense:OutlineFileSize>
                     <ExtensisFontSense:KerningChecksum>0</ExtensisFontSense:KerningChecksum>
                     <ExtensisFontSense:Foundry>--</ExtensisFontSense:Foundry>
                     <ExtensisFontSense:FontKind>OpenType - PS</ExtensisFontSense:FontKind>
                     <ExtensisFontSense:Checksum>997073667</ExtensisFontSense:Checksum>
                     <ExtensisFontSense:PostScriptName>BrandonGrotesque-ThinItalic</ExtensisFontSense:PostScriptName>
                     <ExtensisFontSense:FontSense_1.2_Checksum>997073667</ExtensisFontSense:FontSense_1.2_Checksum>
                  </rdf:Description>
               </rdf:li>
            </rdf:Bag>
         </ExtensisFontSense:slug>
      </rdf:Description>
   </rdf:RDF>
</x:xmpmeta>
                                                                                                    
                                                                                                    
                                                                                                    
                                                                                                    
                                                                                                    
                                                                                                    
                                                                                                    
                                                                                                    
                                                                                                    
                                                                                                    
                                                                                                    
                                                                                                    
                                                                                                    
                                                                                                    
                                                                                                    
                                                                                                    
                                                                                                    
                                                                                                    
                                                                                                    
                                                                                                    
                           
<?xpacket end="w"?></metadata>
<style type="text/css">
	.st0{display:none;}
	.st1{display:inline;fill:#FFFFFF;stroke:#4F5B69;stroke-miterlimit:10;}
	.st2{fill:#FFFFFF;stroke:#4F5B69;stroke-miterlimit:10;}
	.st3{fill:#4F5B69;}
	.st4{fill:#4F5B69;stroke:#4F5B69;stroke-width:0.75;stroke-miterlimit:10;}
	.st5{font-family:'BrandonGrotesque-ThinItalic';}
	.st6{font-size:14.8829px;}
	.st7{font-size:8.7338px;}
</style>
<g id="Layer_4" class="st0">
	<path class="st1" d="M109,140.4H41c-0.6,0-1-0.4-1-1V10.6c0-0.6,0.4-1,1-1h68c0.6,0,1,0.4,1,1v128.9C110,140,109.6,140.4,109,140.4
		z"/>
	<path class="st1" d="M102.7,123.8H47.3c-0.6,0-1-0.4-1-1V28.2c0-0.6,0.4-1,1-1h55.5c0.6,0,1,0.4,1,1v94.6
		C103.7,123.4,103.3,123.8,102.7,123.8z"/>
	<path class="st1" d="M87.5,20.8h-25c-1.3,0-2.3-1-2.3-2.3l0,0c0-1.3,1-2.3,2.3-2.3h25c1.3,0,2.3,1,2.3,2.3l0,0
		C89.8,19.8,88.8,20.8,87.5,20.8z"/>
	<circle class="st1" cx="75" cy="131.2" r="3.4"/>
</g>
<g id="Layer_3" class="st0">
	<path class="st1" d="M29.5,54.1L6.9,93c-0.1,0.1-0.1,0.3-0.1,0.4v42c0,0.6,0.4,1,1,1h133.9c0.6,0,1-0.4,1-1v-42
		c0-0.1,0-0.3-0.1-0.4l-21-38.9c-0.2-0.4-0.5-0.6-0.9-0.6H30.4C30.1,53.5,29.7,53.7,29.5,54.1z"/>
	<path class="st1" d="M95.3,93.8c-0.4,0-0.8,0.3-0.9,0.7c-2.7,8.1-10.4,13.9-19.4,13.9s-16.7-5.8-19.4-13.9
		c-0.1-0.4-0.5-0.7-0.9-0.7H7.8c-0.6,0-1,0.4-1,1V136c0,0.6,0.4,1,1,1h134.4c0.6,0,1-0.4,1-1V94.8c0-0.6-0.4-1-1-1H95.3z"/>
	<path class="st1" d="M85.9,69.8V14c0-0.6-0.4-1-1-1H66.2c-0.6,0-1,0.4-1,1v55.8c0,0.6-0.4,1-1,1H54.1c-0.9,0-1.3,1.1-0.7,1.7
		l21.2,21.2c0.4,0.4,1,0.4,1.4,0l20.7-21.2c0.6-0.6,0.2-1.7-0.7-1.7h-9C86.4,70.8,85.9,70.4,85.9,69.8z"/>
	<path class="st1" d="M116.8,110.5c0,0-3.6-3.6-7-0.8c0,0-4.2,3.1,0.5,8.3l6,6.2c0,0,0.5,0.5,1,0l6.5-6.8c0,0,3.6-4.4,0-7.8
		C123.8,109.7,120.9,106.9,116.8,110.5z"/>
</g>
<rect x="7.5" y="27.7" class="st2" width="124.5" height="102.1"/>
<rect x="2" y="21.7" class="st2" width="124.5" height="102.1"/>
<rect x="2" y="21.7" class="st2" width="124.5" height="24.6"/>
<path class="st2" d="M48.4,21.1c0,0-2.2-7.6-10.4-7.1c0,0-5.5-0.5-9.8,7.1v14.7c0,0,1.1,5.5,6,6h6.6c0,0,2.2-1.1,0-2.7
	c0,0-3.8,0.5-4.4-3.3V22.8c0,0,0-2.7,3.8-2.2l2.7,1.6h5.5V21.1z"/>
<path class="st2" d="M102.4,21.1c0,0-2.2-7.6-10.4-7.1c0,0-5.5-0.5-9.8,7.1v14.7c0,0,1.1,5.5,6,6h6.6c0,0,2.2-1.1,0-2.7
	c0,0-3.8,0.5-4.4-3.3V22.8c0,0,0-2.7,3.8-2.2l2.7,1.6h5.5V21.1z"/>
<circle class="st2" cx="126.8" cy="120.5" r="22"/>
<g>
	<path class="st3" d="M49.9,57.5L49.9,57.5l-1,0.5l-0.1-0.6l1.2-0.6h0.6v5.5h-0.7V57.5z"/>
</g>
<g>
	<path class="st3" d="M62.8,62.3v-0.5l0.6-0.6c1.4-1.3,2.1-2.1,2.1-2.9c0-0.6-0.3-1.1-1.1-1.1c-0.5,0-0.9,0.3-1.2,0.5l-0.2-0.5
		c0.4-0.3,0.9-0.6,1.6-0.6c1.2,0,1.7,0.8,1.7,1.6c0,1-0.7,1.9-1.9,3l-0.4,0.4v0h2.5v0.6H62.8z"/>
</g>
<g>
	<path class="st3" d="M77.1,61.5c0.2,0.1,0.7,0.3,1.2,0.3c1,0,1.3-0.6,1.3-1.1c0-0.8-0.7-1.1-1.4-1.1h-0.4v-0.6h0.4
		c0.5,0,1.2-0.3,1.2-0.9c0-0.4-0.3-0.8-1-0.8c-0.4,0-0.9,0.2-1.1,0.4l-0.2-0.5c0.3-0.2,0.9-0.4,1.5-0.4c1.1,0,1.6,0.6,1.6,1.3
		c0,0.6-0.3,1.1-1,1.3v0c0.7,0.1,1.2,0.6,1.2,1.4c0,0.9-0.7,1.7-2,1.7c-0.6,0-1.2-0.2-1.4-0.4L77.1,61.5z"/>
</g>
<g>
	<path class="st3" d="M93.6,62.3v-1.5H91v-0.5l2.5-3.5h0.8v3.4h0.8v0.6h-0.8v1.5H93.6z M93.6,60.2v-1.9c0-0.3,0-0.6,0-0.9h0
		c-0.2,0.3-0.3,0.6-0.5,0.8l-1.4,1.9v0H93.6z"/>
</g>
<text transform="matrix(1 0 0 1 118.3145 120.1064)" class="st4 st5 st6">90</text>
<g>
	<text transform="matrix(1 0 0 1 118.6055 130.7314)" class="st4 st5 st7">Days</text>
</g>
<g>
	<path class="st3" d="M109.1,57.4H107l-0.2,1.4c0.1,0,0.2,0,0.5,0c0.4,0,0.9,0.1,1.2,0.3c0.4,0.2,0.8,0.7,0.8,1.4
		c0,1.1-0.9,1.9-2.1,1.9c-0.6,0-1.1-0.2-1.4-0.3l0.2-0.6c0.2,0.1,0.7,0.3,1.2,0.3c0.7,0,1.3-0.5,1.3-1.2c0-0.7-0.5-1.2-1.6-1.2
		c-0.3,0-0.6,0-0.8,0.1l0.4-2.7h2.7V57.4z"/>
</g>
<g>
	<path class="st3" d="M48.2,73.4c0-0.7,0.4-1.2,1.1-1.5l0,0c-0.6-0.3-0.9-0.8-0.9-1.2c0-0.9,0.7-1.5,1.7-1.5c1.1,0,1.6,0.7,1.6,1.4
		c0,0.5-0.2,1-0.9,1.3v0c0.7,0.3,1.1,0.8,1.1,1.4c0,1-0.8,1.6-1.9,1.6C48.9,74.9,48.2,74.2,48.2,73.4z M51.2,73.4
		c0-0.7-0.5-1-1.2-1.2c-0.6,0.2-1,0.6-1,1.1c0,0.6,0.4,1.1,1.1,1.1C50.7,74.4,51.2,74,51.2,73.4z M49.1,70.6c0,0.6,0.4,0.9,1.1,1
		c0.5-0.2,0.8-0.5,0.8-1c0-0.4-0.3-0.9-0.9-0.9C49.4,69.7,49.1,70.1,49.1,70.6z"/>
</g>
<g>
	<path class="st3" d="M36.8,69.3v0.5l-2.4,5h-0.8l2.4-4.9v0h-2.7v-0.6H36.8z"/>
</g>
<g>
	<path class="st3" d="M22,69.8c-0.2,0-0.3,0-0.6,0c-1.2,0.2-1.8,1.1-1.9,2h0c0.3-0.4,0.7-0.6,1.3-0.6c1,0,1.7,0.7,1.7,1.8
		c0,1-0.7,2-1.8,2c-1.2,0-2-0.9-2-2.4c0-1.1,0.4-2,0.9-2.5c0.5-0.5,1.1-0.7,1.8-0.8c0.2,0,0.4,0,0.5,0V69.8z M21.8,73
		c0-0.8-0.5-1.3-1.1-1.3c-0.5,0-0.9,0.3-1.1,0.7c-0.1,0.1-0.1,0.2-0.1,0.3c0,0.9,0.4,1.6,1.2,1.6C21.3,74.3,21.8,73.8,21.8,73z"/>
</g>
<g>
	<path class="st3" d="M63.2,74.3c0.2,0,0.3,0,0.6,0c0.4-0.1,0.8-0.2,1.2-0.5c0.4-0.3,0.6-0.8,0.7-1.5h0c-0.3,0.4-0.8,0.6-1.3,0.6
		c-1,0-1.6-0.8-1.6-1.7c0-1,0.8-2,1.9-2c1.1,0,1.8,0.9,1.8,2.3c0,1.2-0.4,2.1-1,2.6c-0.4,0.4-1,0.7-1.6,0.7c-0.3,0-0.5,0.1-0.7,0
		V74.3z M63.5,71.1c0,0.7,0.4,1.2,1.1,1.2c0.5,0,0.9-0.2,1.1-0.6c0-0.1,0.1-0.2,0.1-0.3c0-0.9-0.3-1.7-1.1-1.7
		C63.9,69.8,63.5,70.3,63.5,71.1z"/>
</g>
<g>
	<path class="st3" d="M75.3,70L75.3,70l-1,0.5l-0.1-0.6l1.2-0.6H76v5.5h-0.7V70z"/>
	<path class="st3" d="M81.7,72c0,1.9-0.7,2.9-1.9,2.9c-1.1,0-1.8-1-1.8-2.8c0-1.9,0.8-2.9,1.9-2.9C81.1,69.2,81.7,70.2,81.7,72z
		 M78.7,72.1c0,1.4,0.4,2.3,1.1,2.3c0.8,0,1.1-0.9,1.1-2.3c0-1.4-0.3-2.3-1.1-2.3C79.2,69.8,78.7,70.6,78.7,72.1z"/>
</g>
<g>
	<path class="st3" d="M90.7,70L90.7,70l-1,0.5l-0.1-0.6l1.2-0.6h0.6v5.5h-0.7V70z"/>
	<path class="st3" d="M95.1,70L95.1,70l-1,0.5L94,69.9l1.2-0.6h0.6v5.5h-0.7V70z"/>
</g>
<g>
	<path class="st3" d="M105.2,70L105.2,70l-1,0.5l-0.1-0.6l1.2-0.6h0.6v5.5h-0.7V70z"/>
	<path class="st3" d="M107.9,74.8v-0.5l0.6-0.6c1.4-1.3,2.1-2.1,2.1-2.9c0-0.6-0.3-1.1-1.1-1.1c-0.5,0-0.9,0.3-1.2,0.5l-0.2-0.5
		c0.4-0.3,0.9-0.6,1.6-0.6c1.2,0,1.7,0.8,1.7,1.6c0,1-0.7,1.9-1.9,3l-0.4,0.4v0h2.5v0.6H107.9z"/>
</g>
<g>
	<path class="st3" d="M47.6,82.9L47.6,82.9l-1,0.5l-0.1-0.6l1.2-0.6h0.6v5.5h-0.7V82.9z"/>
	<path class="st3" d="M53.7,82.8h-2.1l-0.2,1.4c0.1,0,0.2,0,0.5,0c0.4,0,0.9,0.1,1.2,0.3c0.4,0.2,0.8,0.7,0.8,1.4
		c0,1.1-0.9,1.9-2.1,1.9c-0.6,0-1.1-0.2-1.4-0.3l0.2-0.6c0.2,0.1,0.7,0.3,1.2,0.3c0.7,0,1.3-0.5,1.3-1.2c0-0.7-0.5-1.2-1.6-1.2
		c-0.3,0-0.6,0-0.8,0.1l0.4-2.7h2.7V82.8z"/>
</g>
<g>
	<path class="st3" d="M32.2,82.9L32.2,82.9l-1,0.5l-0.1-0.6l1.2-0.6H33v5.5h-0.7V82.9z"/>
	<path class="st3" d="M37.3,87.7v-1.5h-2.6v-0.5l2.5-3.5H38v3.4h0.8v0.6H38v1.5H37.3z M37.3,85.6v-1.9c0-0.3,0-0.6,0-0.9h0
		c-0.2,0.3-0.3,0.6-0.5,0.8l-1.4,1.9v0H37.3z"/>
</g>
<g>
	<path class="st3" d="M18.2,82.9L18.2,82.9l-1,0.5l-0.1-0.6l1.2-0.6h0.6v5.5h-0.7V82.9z"/>
	<path class="st3" d="M21.1,86.9c0.2,0.1,0.7,0.3,1.2,0.3c1,0,1.3-0.6,1.3-1.1c0-0.8-0.7-1.1-1.4-1.1h-0.4v-0.6h0.4
		c0.5,0,1.2-0.3,1.2-0.9c0-0.4-0.3-0.8-1-0.8c-0.4,0-0.9,0.2-1.1,0.4l-0.2-0.5c0.3-0.2,0.9-0.4,1.5-0.4c1.1,0,1.6,0.6,1.6,1.3
		c0,0.6-0.3,1.1-1,1.3v0c0.7,0.1,1.2,0.6,1.2,1.4c0,0.9-0.7,1.7-2,1.7c-0.6,0-1.2-0.2-1.4-0.4L21.1,86.9z"/>
</g>
<g>
	<path class="st3" d="M61.8,82.9L61.8,82.9l-1,0.5l-0.1-0.6l1.2-0.6h0.6v5.5h-0.7V82.9z"/>
	<path class="st3" d="M67.7,82.7c-0.2,0-0.3,0-0.6,0c-1.2,0.2-1.8,1.1-1.9,2h0c0.3-0.3,0.7-0.6,1.3-0.6c1,0,1.7,0.7,1.7,1.8
		c0,1-0.7,2-1.8,2c-1.2,0-2-0.9-2-2.4c0-1.1,0.4-2,0.9-2.5c0.5-0.5,1.1-0.7,1.8-0.8c0.2,0,0.4,0,0.5,0V82.7z M67.5,85.9
		c0-0.8-0.5-1.3-1.1-1.3c-0.5,0-0.9,0.3-1.1,0.7c-0.1,0.1-0.1,0.2-0.1,0.3c0,0.9,0.4,1.6,1.2,1.6C67,87.2,67.5,86.7,67.5,85.9z"/>
</g>
<g>
	<path class="st3" d="M76,82.9L76,82.9l-1,0.5l-0.1-0.6l1.2-0.6h0.6v5.5H76V82.9z"/>
	<path class="st3" d="M82.3,82.2v0.5l-2.4,5h-0.8l2.4-4.9v0h-2.7v-0.6H82.3z"/>
</g>
<g>
	<path class="st3" d="M46.1,100.3v-0.5l0.6-0.6c1.4-1.3,2.1-2.1,2.1-2.9c0-0.6-0.3-1.1-1.1-1.1c-0.5,0-0.9,0.3-1.2,0.5l-0.2-0.5
		c0.4-0.3,0.9-0.6,1.6-0.6c1.2,0,1.7,0.8,1.7,1.6c0,1-0.7,1.9-1.9,3l-0.4,0.4v0h2.5v0.6H46.1z"/>
	<path class="st3" d="M50.4,100.3v-0.5l0.6-0.6c1.4-1.3,2.1-2.1,2.1-2.9c0-0.6-0.3-1.1-1.1-1.1c-0.5,0-0.9,0.3-1.2,0.5l-0.2-0.5
		c0.4-0.3,0.9-0.6,1.6-0.6c1.2,0,1.7,0.8,1.7,1.6c0,1-0.7,1.9-1.9,3l-0.4,0.4v0H54v0.6H50.4z"/>
</g>
<g>
	<path class="st3" d="M31.5,100.3v-0.5l0.6-0.6c1.4-1.3,2.1-2.1,2.1-2.9c0-0.6-0.3-1.1-1.1-1.1c-0.5,0-0.9,0.3-1.2,0.5l-0.2-0.5
		c0.4-0.3,0.9-0.6,1.6-0.6c1.2,0,1.7,0.8,1.7,1.6c0,1-0.7,1.9-1.9,3l-0.4,0.4v0h2.5v0.6H31.5z"/>
	<path class="st3" d="M37.5,95.5L37.5,95.5l-1,0.5l-0.1-0.6l1.2-0.6h0.6v5.5h-0.7V95.5z"/>
</g>
<g>
	<path class="st3" d="M16.6,100.3v-0.5l0.6-0.6c1.4-1.3,2.1-2.1,2.1-2.9c0-0.6-0.3-1.1-1.1-1.1c-0.5,0-0.9,0.3-1.2,0.5l-0.2-0.5
		c0.4-0.3,0.9-0.6,1.6-0.6c1.2,0,1.7,0.8,1.7,1.6c0,1-0.7,1.9-1.9,3l-0.4,0.4v0h2.5v0.6H16.6z"/>
	<path class="st3" d="M24.7,97.5c0,1.9-0.7,2.9-1.9,2.9c-1.1,0-1.8-1-1.8-2.8c0-1.9,0.8-2.9,1.9-2.9C24,94.7,24.7,95.7,24.7,97.5z
		 M21.7,97.6c0,1.4,0.4,2.3,1.1,2.3c0.8,0,1.1-0.9,1.1-2.3c0-1.4-0.3-2.3-1.1-2.3C22.2,95.3,21.7,96.1,21.7,97.6z"/>
</g>
<g>
	<path class="st3" d="M60.6,100.3v-0.5l0.6-0.6c1.4-1.3,2.1-2.1,2.1-2.9c0-0.6-0.3-1.1-1.1-1.1c-0.5,0-0.9,0.3-1.2,0.5l-0.2-0.5
		c0.4-0.3,0.9-0.6,1.6-0.6c1.2,0,1.7,0.8,1.7,1.6c0,1-0.7,1.9-1.9,3l-0.4,0.4v0h2.5v0.6H60.6z"/>
	<path class="st3" d="M65.1,99.5c0.2,0.1,0.7,0.3,1.2,0.3c1,0,1.3-0.6,1.3-1.1c0-0.8-0.7-1.1-1.4-1.1h-0.4v-0.6h0.4
		c0.5,0,1.2-0.3,1.2-0.9c0-0.4-0.3-0.8-1-0.8c-0.4,0-0.9,0.2-1.1,0.4l-0.2-0.5c0.3-0.2,0.9-0.4,1.5-0.4c1.1,0,1.6,0.6,1.6,1.3
		c0,0.6-0.3,1.1-1,1.3v0c0.7,0.1,1.2,0.6,1.2,1.4c0,0.9-0.7,1.7-2,1.7c-0.6,0-1.2-0.2-1.4-0.4L65.1,99.5z"/>
</g>
<g>
	<path class="st3" d="M46.1,113.3v-0.5l0.6-0.6c1.4-1.3,2.1-2.1,2.1-2.9c0-0.6-0.3-1.1-1.1-1.1c-0.5,0-0.9,0.3-1.2,0.5l-0.2-0.5
		c0.4-0.3,0.9-0.6,1.6-0.6c1.2,0,1.7,0.8,1.7,1.6c0,1-0.7,1.9-1.9,3l-0.4,0.4v0h2.5v0.6H46.1z"/>
	<path class="st3" d="M50.9,112.7c0.2,0,0.3,0,0.6,0c0.4-0.1,0.8-0.2,1.2-0.5c0.4-0.3,0.6-0.8,0.7-1.5h0c-0.3,0.4-0.8,0.6-1.3,0.6
		c-1,0-1.6-0.8-1.6-1.7c0-1,0.8-2,1.9-2c1.1,0,1.8,0.9,1.8,2.3c0,1.2-0.4,2.1-1,2.6c-0.4,0.4-1,0.7-1.6,0.7c-0.3,0-0.5,0.1-0.7,0
		V112.7z M51.1,109.5c0,0.7,0.4,1.2,1.1,1.2c0.5,0,0.9-0.2,1.1-0.6c0-0.1,0.1-0.2,0.1-0.3c0-0.9-0.3-1.7-1.1-1.7
		C51.6,108.2,51.1,108.7,51.1,109.5z"/>
</g>
<g>
	<path class="st3" d="M31.5,113.3v-0.5l0.6-0.6c1.4-1.3,2.1-2.1,2.1-2.9c0-0.6-0.3-1.1-1.1-1.1c-0.5,0-0.9,0.3-1.2,0.5l-0.2-0.5
		c0.4-0.3,0.9-0.6,1.6-0.6c1.2,0,1.7,0.8,1.7,1.6c0,1-0.7,1.9-1.9,3l-0.4,0.4v0h2.5v0.6H31.5z"/>
	<path class="st3" d="M35.8,111.8c0-0.7,0.4-1.2,1.1-1.5l0,0c-0.6-0.3-0.9-0.8-0.9-1.2c0-0.9,0.7-1.5,1.7-1.5c1.1,0,1.6,0.7,1.6,1.4
		c0,0.5-0.2,1-0.9,1.3v0c0.7,0.3,1.1,0.8,1.1,1.4c0,1-0.8,1.6-1.9,1.6C36.5,113.3,35.8,112.7,35.8,111.8z M38.8,111.8
		c0-0.7-0.5-1-1.2-1.2c-0.6,0.2-1,0.6-1,1.1c0,0.6,0.4,1.1,1.1,1.1C38.4,112.8,38.8,112.4,38.8,111.8z M36.8,109
		c0,0.6,0.4,0.9,1.1,1c0.5-0.2,0.8-0.5,0.8-1c0-0.4-0.3-0.9-0.9-0.9C37.1,108.2,36.8,108.6,36.8,109z"/>
</g>
<g>
	<path class="st3" d="M16.6,113.3v-0.5l0.6-0.6c1.4-1.3,2.1-2.1,2.1-2.9c0-0.6-0.3-1.1-1.1-1.1c-0.5,0-0.9,0.3-1.2,0.5l-0.2-0.5
		c0.4-0.3,0.9-0.6,1.6-0.6c1.2,0,1.7,0.8,1.7,1.6c0,1-0.7,1.9-1.9,3l-0.4,0.4v0h2.5v0.6H16.6z"/>
	<path class="st3" d="M24.6,107.7v0.5l-2.4,5h-0.8l2.4-4.9v0h-2.7v-0.6H24.6z"/>
</g>
<g>
	<path class="st3" d="M60.8,112.4c0.2,0.1,0.7,0.3,1.2,0.3c1,0,1.3-0.6,1.3-1.1c0-0.8-0.7-1.1-1.4-1.1h-0.4V110h0.4
		c0.5,0,1.2-0.3,1.2-0.9c0-0.4-0.3-0.8-1-0.8c-0.4,0-0.9,0.2-1.1,0.4l-0.2-0.5c0.3-0.2,0.9-0.4,1.5-0.4c1.1,0,1.6,0.6,1.6,1.3
		c0,0.6-0.3,1.1-1,1.3v0c0.7,0.1,1.2,0.6,1.2,1.4c0,0.9-0.7,1.7-2,1.7c-0.6,0-1.2-0.2-1.4-0.4L60.8,112.4z"/>
	<path class="st3" d="M68.6,110.4c0,1.9-0.7,2.9-1.9,2.9c-1.1,0-1.8-1-1.8-2.8c0-1.9,0.8-2.9,1.9-2.9
		C68,107.6,68.6,108.7,68.6,110.4z M65.6,110.5c0,1.4,0.4,2.3,1.1,2.3c0.8,0,1.1-0.9,1.1-2.3c0-1.4-0.3-2.3-1.1-2.3
		C66.1,108.2,65.6,109,65.6,110.5z"/>
</g>
<g>
	<path class="st3" d="M74.8,100.3v-0.5l0.6-0.6c1.4-1.3,2.1-2.1,2.1-2.9c0-0.6-0.3-1.1-1.1-1.1c-0.5,0-0.9,0.3-1.2,0.5l-0.2-0.5
		c0.4-0.3,0.9-0.6,1.6-0.6c1.2,0,1.7,0.8,1.7,1.6c0,1-0.7,1.9-1.9,3l-0.4,0.4v0h2.5v0.6H74.8z"/>
	<path class="st3" d="M81.5,100.3v-1.5h-2.6v-0.5l2.5-3.5h0.8v3.4H83v0.6h-0.8v1.5H81.5z M81.5,98.2v-1.9c0-0.3,0-0.6,0-0.9h0
		c-0.2,0.3-0.3,0.6-0.5,0.8l-1.4,1.9v0H81.5z"/>
</g>
<g>
	<path class="st3" d="M90.2,82.9L90.2,82.9l-1,0.5l-0.1-0.6l1.2-0.6h0.6v5.5h-0.7V82.9z"/>
	<path class="st3" d="M92.9,86.3c0-0.7,0.4-1.2,1.1-1.5l0,0c-0.6-0.3-0.9-0.8-0.9-1.2c0-0.9,0.7-1.5,1.7-1.5c1.1,0,1.6,0.7,1.6,1.4
		c0,0.5-0.2,1-0.9,1.3v0c0.7,0.3,1.1,0.8,1.1,1.4c0,1-0.8,1.6-1.9,1.6C93.6,87.8,92.9,87.1,92.9,86.3z M95.8,86.3
		c0-0.7-0.5-1-1.2-1.2c-0.6,0.2-1,0.6-1,1.1c0,0.6,0.4,1.1,1.1,1.1C95.4,87.3,95.8,86.8,95.8,86.3z M93.8,83.5c0,0.6,0.4,0.9,1.1,1
		c0.5-0.2,0.8-0.5,0.8-1c0-0.4-0.3-0.9-0.9-0.9C94.1,82.6,93.8,83,93.8,83.5z"/>
</g>
<g>
	<path class="st3" d="M104.7,82.9L104.7,82.9l-1,0.5l-0.1-0.6l1.2-0.6h0.6v5.5h-0.7V82.9z"/>
	<path class="st3" d="M107.9,87.2c0.2,0,0.4,0,0.6,0c0.4-0.1,0.8-0.2,1.2-0.5c0.4-0.3,0.6-0.8,0.7-1.5h0c-0.3,0.4-0.8,0.6-1.3,0.6
		c-1,0-1.6-0.8-1.6-1.7c0-1,0.8-2,1.9-2s1.8,0.9,1.8,2.3c0,1.2-0.4,2.1-1,2.6c-0.4,0.4-1,0.7-1.6,0.7c-0.3,0-0.5,0.1-0.7,0V87.2z
		 M108.2,84c0,0.7,0.4,1.2,1.1,1.2c0.5,0,0.9-0.2,1.1-0.6c0-0.1,0.1-0.2,0.1-0.3c0-0.9-0.3-1.7-1.1-1.7
		C108.6,82.7,108.2,83.2,108.2,84z"/>
</g>
<g>
	<path class="st3" d="M88.6,100.3v-0.5l0.6-0.6c1.4-1.3,2.1-2.1,2.1-2.9c0-0.6-0.3-1.1-1.1-1.1c-0.5,0-0.9,0.3-1.2,0.5l-0.2-0.5
		c0.4-0.3,0.9-0.6,1.6-0.6c1.2,0,1.7,0.8,1.7,1.6c0,1-0.7,1.9-1.9,3l-0.4,0.4v0h2.5v0.6H88.6z"/>
	<path class="st3" d="M96.2,95.4h-2.1l-0.2,1.4c0.1,0,0.2,0,0.5,0c0.4,0,0.9,0.1,1.2,0.3c0.4,0.2,0.8,0.7,0.8,1.4
		c0,1.1-0.9,1.9-2.1,1.9c-0.6,0-1.1-0.2-1.4-0.3l0.2-0.6c0.2,0.1,0.7,0.3,1.2,0.3c0.7,0,1.3-0.5,1.3-1.2c0-0.7-0.5-1.2-1.6-1.2
		c-0.3,0-0.6,0-0.8,0.1l0.4-2.7h2.7V95.4z"/>
</g>
<g>
	<path class="st3" d="M103.1,100.3v-0.5l0.6-0.6c1.4-1.3,2.1-2.1,2.1-2.9c0-0.6-0.3-1.1-1.1-1.1c-0.5,0-0.9,0.3-1.2,0.5l-0.2-0.5
		c0.4-0.3,0.9-0.6,1.6-0.6c1.2,0,1.7,0.8,1.7,1.6c0,1-0.7,1.9-1.9,3l-0.4,0.4v0h2.5v0.6H103.1z"/>
	<path class="st3" d="M110.6,95.3c-0.2,0-0.4,0-0.6,0c-1.2,0.2-1.8,1.1-1.9,2h0c0.3-0.3,0.7-0.6,1.3-0.6c1,0,1.7,0.7,1.7,1.8
		c0,1-0.7,2-1.8,2c-1.2,0-2-0.9-2-2.4c0-1.1,0.4-2,0.9-2.5c0.5-0.5,1.1-0.7,1.8-0.8c0.2,0,0.4,0,0.5,0V95.3z M110.4,98.5
		c0-0.8-0.5-1.3-1.1-1.3c-0.5,0-0.9,0.3-1.1,0.7c-0.1,0.1-0.1,0.2-0.1,0.3c0,0.9,0.4,1.6,1.2,1.6C110,99.9,110.4,99.3,110.4,98.5z"
		/>
</g>
</svg>
