<?xml version="1.0" encoding="utf-8"?>
<!-- Generator: Adobe Illustrator 21.1.0, SVG Export Plug-In . SVG Version: 6.00 Build 0)  -->
<svg version="1.1" id="Layer_1" xmlns="http://www.w3.org/2000/svg" xmlns:xlink="http://www.w3.org/1999/xlink" x="0px" y="0px"
	 viewBox="0 0 50 50" style="enable-background:new 0 0 50 50;" xml:space="preserve">
<style type="text/css">
	.st0{fill:none;stroke:#c8c8c8;stroke-width:1.5;stroke-miterlimit:10;}
	.st1{fill:#c8c8c8;}
	.st2{fill:none;stroke:#c8c8c8;stroke-width:0.75;stroke-miterlimit:10;}
</style>
<g>
	<path class="st0" d="M46.5,42.1h-43c-0.6,0-1-0.4-1-1V14.7c0-0.6,0.4-1,1-1h43c0.6,0,1,0.4,1,1v26.4C47.5,41.7,47.1,42.1,46.5,42.1
		z"/>
	<path class="st1" d="M31.8,12.3v-1.8c0-0.6-2.4-1.7-6.8-1.7s-6.8,1.1-6.8,1.7v1.8h-1v-1.8c0-1.9,4.6-2.6,7.8-2.6s7.8,0.7,7.8,2.6
		v1.8H31.8z"/>
	<line class="st2" x1="19.1" y1="27.9" x2="30.9" y2="27.9"/>
	<line class="st2" x1="25" y1="22.5" x2="25" y2="33.3"/>
</g>
</svg>
