<?xml version="1.0" encoding="utf-8"?>
<!-- Generator: Adobe Illustrator 21.1.0, SVG Export Plug-In . SVG Version: 6.00 Build 0)  -->
<svg version="1.1" id="Layer_1" xmlns="http://www.w3.org/2000/svg" xmlns:xlink="http://www.w3.org/1999/xlink" x="0px" y="0px"
	 viewBox="0 0 50 50" style="enable-background:new 0 0 50 50;" xml:space="preserve">
<style type="text/css">
	.st0{fill:none;stroke:#4F5B69;stroke-width:1.5;stroke-miterlimit:10;}
</style>
<g>
	<path class="st0" d="M43.4,27.5l3.9-3.9c0.6-0.6,0.6-1.5,0-2.1L28.5,2.7c-0.6-0.6-1.5-0.6-2.1,0l-3.9,3.9c-0.6,0.6-0.6,1.5,0,2.1
		l18.8,18.8C41.9,28.1,42.8,28.1,43.4,27.5z"/>
	<path class="st0" d="M45,17.5l0.5-0.5c0.5-0.5,0.5-1.3,0-1.8L34.7,4.5c-0.5-0.5-1.3-0.5-1.8,0L32.5,5c-0.5,0.5-0.5,1.3,0,1.8
		l10.8,10.8C43.7,18,44.5,18,45,17.5z"/>
	<path class="st0" d="M23.7,47.3l3.9-3.9c0.6-0.6,0.6-1.5,0-2.1L8.7,22.5c-0.6-0.6-1.5-0.6-2.1,0l-3.9,3.9c-0.6,0.6-0.6,1.5,0,2.1
		l18.8,18.8C22.1,47.8,23.1,47.8,23.7,47.3z"/>
	<path class="st0" d="M17,45.5l0.5-0.5c0.5-0.5,0.5-1.3,0-1.8L6.8,32.5C6.3,32,5.5,32,5,32.5L4.5,33c-0.5,0.5-0.5,1.3,0,1.8
		l10.8,10.8C15.8,46,16.6,46,17,45.5z"/>
	<path class="st0" d="M34.9,15.1"/>
	<path class="st0" d="M18.1,31.9"/>
	<path class="st0" d="M31.9,19.7L19.7,31.9c-0.4,0.4-1.1,0.4-1.5,0l-0.4-0.4c-0.4-0.4-0.4-1.1,0-1.5L30,17.8c0.4-0.4,1.1-0.4,1.5,0
		l0.4,0.4C32.3,18.6,32.3,19.3,31.9,19.7z"/>
	<path class="st0" d="M43.5,9.2l-1.5,1.5c-0.1,0.1-0.3,0.1-0.4,0l-2.3-2.3c-0.1-0.1-0.1-0.3,0-0.4l1.5-1.5c0.1-0.1,0.3-0.1,0.4,0
		l2.3,2.3C43.6,8.9,43.6,9.1,43.5,9.2z"/>
	<path class="st0" d="M11.2,42.3l-1.5,1.5c-0.1,0.1-0.3,0.1-0.4,0l-2.4-2.4c-0.1-0.1-0.1-0.3,0-0.4l1.5-1.5c0.1-0.1,0.3-0.1,0.4,0
		l2.4,2.4C11.3,42.1,11.3,42.2,11.2,42.3z"/>
</g>
</svg>
