<?xml version="1.0" encoding="utf-8"?>
<!-- Generator: Adobe Illustrator 21.1.0, SVG Export Plug-In . SVG Version: 6.00 Build 0)  -->
<svg version="1.1" id="Layer_1" xmlns="http://www.w3.org/2000/svg" xmlns:xlink="http://www.w3.org/1999/xlink" x="0px" y="0px"
	 viewBox="0 0 80 80" style="enable-background:new 0 0 80 80;" xml:space="preserve">
<style type="text/css">
	.st0{fill:#4F5B69;}
</style>
<path class="st0" d="M55.6,33H24.4c-1.1,0-2-0.9-2-2l0,0c0-1.1,0.9-2,2-2h31.2c1.1,0,2,0.9,2,2l0,0C57.6,32.1,56.7,33,55.6,33z"/>
<path class="st0" d="M55.6,42H24.4c-1.1,0-2-0.9-2-2l0,0c0-1.1,0.9-2,2-2h31.2c1.1,0,2,0.9,2,2l0,0C57.6,41.1,56.7,42,55.6,42z"/>
<path class="st0" d="M55.6,51H24.4c-1.1,0-2-0.9-2-2l0,0c0-1.1,0.9-2,2-2h31.2c1.1,0,2,0.9,2,2l0,0C57.6,50.1,56.7,51,55.6,51z"/>
<path class="st0" d="M55.6,42H24.4c-1.1,0-2-0.9-2-2l0,0c0-1.1,0.9-2,2-2h31.2c1.1,0,2,0.9,2,2l0,0C57.6,41.1,56.7,42,55.6,42z"/>
</svg>
