<?xml version="1.0" encoding="utf-8"?>
<!-- Generator: Adobe Illustrator 21.1.0, SVG Export Plug-In . SVG Version: 6.00 Build 0)  -->
<svg version="1.1" id="Layer_1" xmlns="http://www.w3.org/2000/svg" xmlns:xlink="http://www.w3.org/1999/xlink" x="0px" y="0px"
	 viewBox="0 0 150 150" style="enable-background:new 0 0 150 150;" xml:space="preserve">
<metadata><?xpacket begin="﻿" id="W5M0MpCehiHzreSzNTczkc9d"?>
<x:xmpmeta xmlns:x="adobe:ns:meta/" x:xmptk="Adobe XMP Core 5.6-c137 79.159768, 2016/08/11-13:24:42        ">
   <rdf:RDF xmlns:rdf="http://www.w3.org/1999/02/22-rdf-syntax-ns#">
      <rdf:Description rdf:about=""
            xmlns:ExtensisFontSense="http://www.extensis.com/meta/FontSense/">
         <ExtensisFontSense:slug>
            <rdf:Bag>
               <rdf:li>
                  <rdf:Description>
                     <ExtensisFontSense:Family>Brandon Grotesque</ExtensisFontSense:Family>
                     <ExtensisFontSense:Version>001.000</ExtensisFontSense:Version>
                     <ExtensisFontSense:OutlineFileSize>0</ExtensisFontSense:OutlineFileSize>
                     <ExtensisFontSense:KerningChecksum>0</ExtensisFontSense:KerningChecksum>
                     <ExtensisFontSense:Foundry>--</ExtensisFontSense:Foundry>
                     <ExtensisFontSense:FontKind>OpenType - PS</ExtensisFontSense:FontKind>
                     <ExtensisFontSense:Checksum>997073667</ExtensisFontSense:Checksum>
                     <ExtensisFontSense:PostScriptName>BrandonGrotesque-ThinItalic</ExtensisFontSense:PostScriptName>
                     <ExtensisFontSense:FontSense_1.2_Checksum>997073667</ExtensisFontSense:FontSense_1.2_Checksum>
                  </rdf:Description>
               </rdf:li>
            </rdf:Bag>
         </ExtensisFontSense:slug>
      </rdf:Description>
   </rdf:RDF>
</x:xmpmeta>
                                                                                                    
                                                                                                    
                                                                                                    
                                                                                                    
                                                                                                    
                                                                                                    
                                                                                                    
                                                                                                    
                                                                                                    
                                                                                                    
                                                                                                    
                                                                                                    
                                                                                                    
                                                                                                    
                                                                                                    
                                                                                                    
                                                                                                    
                                                                                                    
                                                                                                    
                                                                                                    
                           
<?xpacket end="w"?></metadata>
<style type="text/css">
	.st0{display:none;}
	.st1{display:inline;fill:#FFFFFF;stroke:#4F5B69;stroke-width:1.5;stroke-miterlimit:10;}
	.st2{display:inline;fill:none;stroke:#4F5B69;stroke-width:0.75;stroke-miterlimit:10;}
	.st3{display:inline;fill:#4F5B69;}
	.st4{font-family:'BrandonGrotesque-ThinItalic';}
	.st5{font-size:60px;}
	.st6{fill:#FFFFFF;stroke:#4F5B69;stroke-miterlimit:10;}
</style>
<g id="Layer_1_1_" class="st0">
	<path class="st1" d="M139.3,132.6h-124c-0.6,0-1-0.4-1-1V30.3c0-0.6,0.4-1,1-1h124c0.6,0,1,0.4,1,1v101.3
		C140.3,132.1,139.8,132.6,139.3,132.6z"/>
	<path class="st1" d="M134.7,128.5h-124c-0.6,0-1-0.4-1-1V26.2c0-0.6,0.4-1,1-1h124c0.6,0,1,0.4,1,1v101.3
		C135.7,128.1,135.2,128.5,134.7,128.5z"/>
	<path class="st1" d="M55.7,24.6c0,0-2.2-7.7-10.5-7.2c0,0-5.5-0.6-9.9,7.2v14.9c0,0,1.1,5.5,6.1,6.1H48c0,0,2.2-1.1,0-2.8
		c0,0-3.9,0.6-4.4-3.3V26.3c0,0,0-2.8,3.9-2.2l2.8,1.7h5.5L55.7,24.6L55.7,24.6z"/>
	<path class="st1" d="M110.4,24.6c0,0-2.2-7.7-10.5-7.2c0,0-5.5-0.6-9.9,7.2v14.9c0,0,1.1,5.5,6.1,6.1h6.6c0,0,2.2-1.1,0-2.8
		c0,0-3.9,0.6-4.4-3.3V26.3c0,0,0-2.8,3.9-2.2l2.8,1.7h5.5L110.4,24.6L110.4,24.6z"/>
	<line class="st2" x1="10.5" y1="50.7" x2="136.4" y2="50.7"/>
	<text transform="matrix(1 0 0 1 38.4172 110.1416)" class="st3 st4 st5">90</text>
</g>
<path class="st6" d="M109,140.4H41c-0.6,0-1-0.4-1-1V10.6c0-0.6,0.4-1,1-1h68c0.6,0,1,0.4,1,1v128.9C110,140,109.6,140.4,109,140.4z
	"/>
<path class="st6" d="M102.7,124H47.3c-0.6,0-1-0.4-1-1V24c0-0.6,0.4-1,1-1h55.5c0.6,0,1,0.4,1,1V123
	C103.7,123.6,103.3,124,102.7,124z"/>
<path class="st6" d="M87.5,18.8h-25c-1.3,0-2.3-1-2.3-2.3l0,0c0-1.3,1-2.3,2.3-2.3h25c1.3,0,2.3,1,2.3,2.3l0,0
	C89.8,17.8,88.8,18.8,87.5,18.8z"/>
<circle class="st6" cx="75" cy="132.2" r="4.5"/>
<g id="Layer_3" class="st0">
	<path class="st1" d="M29.5,54.1L6.9,93c-0.1,0.1-0.1,0.3-0.1,0.4v42c0,0.6,0.4,1,1,1h133.9c0.6,0,1-0.4,1-1v-42
		c0-0.1,0-0.3-0.1-0.4l-21-38.9c-0.2-0.4-0.5-0.6-0.9-0.6H30.4C30.1,53.5,29.7,53.7,29.5,54.1z"/>
	<path class="st1" d="M95.3,93.8c-0.4,0-0.8,0.3-0.9,0.7c-2.7,8.1-10.4,13.9-19.4,13.9s-16.7-5.8-19.4-13.9
		c-0.1-0.4-0.5-0.7-0.9-0.7H7.8c-0.6,0-1,0.4-1,1V136c0,0.6,0.4,1,1,1h134.4c0.6,0,1-0.4,1-1V94.8c0-0.6-0.4-1-1-1H95.3z"/>
	<path class="st1" d="M85.9,69.8V14c0-0.6-0.4-1-1-1H66.2c-0.6,0-1,0.4-1,1v55.8c0,0.6-0.4,1-1,1H54.1c-0.9,0-1.3,1.1-0.7,1.7
		l21.2,21.2c0.4,0.4,1,0.4,1.4,0l20.7-21.2c0.6-0.6,0.2-1.7-0.7-1.7h-9C86.4,70.8,85.9,70.4,85.9,69.8z"/>
	<path class="st1" d="M116.8,110.5c0,0-3.6-3.6-7-0.8c0,0-4.2,3.1,0.5,8.3l6,6.2c0,0,0.5,0.5,1,0l6.5-6.8c0,0,3.6-4.4,0-7.8
		C123.8,109.7,120.9,106.9,116.8,110.5z"/>
</g>
</svg>
