<?xml version="1.0" encoding="utf-8"?>
<!-- Generator: Adobe Illustrator 21.1.0, SVG Export Plug-In . SVG Version: 6.00 Build 0)  -->
<svg version="1.1" id="Layer_1" xmlns="http://www.w3.org/2000/svg" xmlns:xlink="http://www.w3.org/1999/xlink" x="0px" y="0px"
	 viewBox="0 0 30 30" style="enable-background:new 0 0 30 30;" xml:space="preserve">
<style type="text/css">
	.st0{fill:#4F5B69;}
</style>
<path class="st0" d="M15.9,1.1L1.1,15.9c-1,1-1,2.7,0,3.8l9.2,9.2c1,1,2.7,1,3.8,0l14.7-14.7c1-1,1-2.7,0-3.8l-9.2-9.2
	C18.6,0.1,16.9,0.1,15.9,1.1z M25.6,11.7c0.4,0.4,0.4,1.2,0,1.6L13.3,25.6c-0.4,0.4-1.2,0.4-1.6,0l-7.3-7.3
	c-0.1-0.1-0.1-0.1-0.1-0.2L15.1,16c0.4-0.1,0.8-0.4,0.9-0.9l2.1-10.9c0.1,0,0.1,0.1,0.2,0.2L25.6,11.7z"/>
</svg>
