<?xml version="1.0" encoding="utf-8"?>
<!-- Generator: Adobe Illustrator 21.1.0, SVG Export Plug-In . SVG Version: 6.00 Build 0)  -->
<svg version="1.1" id="Layer_1" xmlns="http://www.w3.org/2000/svg" xmlns:xlink="http://www.w3.org/1999/xlink" x="0px" y="0px"
	 viewBox="0 0 30 30" style="enable-background:new 0 0 30 30;" xml:space="preserve">
<style type="text/css">
	.st0{fill:#4F5B69;}
</style>
<path class="st0" d="M0.6,4.6c0,0-0.6,11.5,8.3,18.8c0,0,6.3,6.3,16.5,5.9l0.8-0.3l2.5-2.5c0,0,1.7-2,0-4.1c0,0-0.1-0.6-1.5-1.5
	l-4.4-1.2c0,0-2-0.3-2.7,0.4L18.3,22c0,0-8-1.8-10.2-10.2l1.8-1.9c0,0,1-1.8,0.2-3.4L9,2.8c0,0-1.6-3.3-5.3-1.7L1,3.8
	C1,3.8,0.8,4.3,0.6,4.6z"/>
</svg>
