<?xml version="1.0" encoding="utf-8"?>
<!-- Generator: Adobe Illustrator 21.1.0, SVG Export Plug-In . SVG Version: 6.00 Build 0)  -->
<svg version="1.1" id="Layer_1" xmlns="http://www.w3.org/2000/svg" xmlns:xlink="http://www.w3.org/1999/xlink" x="0px" y="0px"
	 viewBox="0 0 24 24" style="enable-background:new 0 0 24 24;" xml:space="preserve">
<style type="text/css">
	.st0{fill:#4F5B69;}
</style>
<g>
	<path class="st0" d="M22.3,1.7L22.3,1.7c-2.2-2.2-5.6-2.2-7.7-0.1L9.7,6.4c0.4-0.1,0.9-0.1,1.3-0.1c1,0,2.1,0.2,3,0.7l3-3
		c0.4-0.4,0.9-0.6,1.4-0.6s1,0.2,1.4,0.6l0.1,0.1c0.4,0.4,0.6,0.9,0.6,1.4c0,0.5-0.2,1-0.6,1.4L14,12.7c-0.4,0.4-0.9,0.6-1.4,0.6
		c-0.5,0-0.9-0.2-1.3-0.5c-0.3-0.1-0.6-0.2-0.9-0.2c-0.9,0-1.7,0.8-1.7,1.7c0,0.5,0.3,1,0.7,1.3l0,0c2.1,1.6,5.1,1.4,7-0.5l5.9-5.9
		C24.4,7.2,24.4,3.8,22.3,1.7z"/>
	<path class="st0" d="M10,11.3c0.4-0.4,0.9-0.6,1.4-0.6c0.2,0,0.4,0,0.6,0.1l0.7,0.3c0.1,0,0.2,0.1,0.3,0.1l0,0l0,0
		c0.2,0,0.3,0.1,0.5,0.1c0.9,0,1.7-0.8,1.7-1.7c0-0.6-0.3-1.2-0.8-1.5l0,0l0,0C14.3,8,14.1,7.9,14,7.9l-0.4-0.2
		c-2-0.9-4.4-0.5-6,1.1l-5.9,5.9c-2.1,2.1-2.1,5.5,0,7.6l0.1,0.1c2.1,2.1,5.5,2.1,7.6,0l4.8-4.8c-0.5,0.1-1.1,0.2-1.6,0.2
		c0,0,0,0,0,0c-1,0-1.9-0.2-2.8-0.6L7,20c-0.4,0.4-0.9,0.6-1.4,0.6s-1-0.2-1.4-0.6l-0.1-0.1c-0.4-0.4-0.6-0.9-0.6-1.4
		c0-0.5,0.2-1,0.6-1.4L10,11.3z"/>
</g>
</svg>
