<?xml version="1.0" encoding="utf-8"?>
<!-- Generator: Adobe Illustrator 21.1.0, SVG Export Plug-In . SVG Version: 6.00 Build 0)  -->
<svg version="1.1" xmlns="http://www.w3.org/2000/svg" xmlns:xlink="http://www.w3.org/1999/xlink" x="0px" y="0px"
	 viewBox="0 0 240 80" style="enable-background:new 0 0 240 80;" xml:space="preserve">
<style type="text/css">
	.st0{fill:#00999E;}
	.st1{fill:#FFFFFF;}
</style>
<g id="Layer_2">
	<g id="Layer_1_1_">
		<g>
			<rect class="st0" width="240" height="80"/>
		</g>
	</g>
</g>
<g id="Layer_1">
	<g>
		<g>
			<g>
				<g>
					<path class="st1" d="M23.4,43.6c0-0.9,0.7-1.7,1.7-1.7h0.3c0.8,0,1.2,0.4,1.7,1l9.3,12V43.5c0-0.9,0.7-1.6,1.6-1.6
						c0.9,0,1.7,0.7,1.7,1.6v15.7c0,0.9-0.7,1.7-1.6,1.7h-0.2c-0.7,0-1.2-0.4-1.7-1l-9.6-12.5v11.9c0,0.9-0.7,1.6-1.6,1.6
						s-1.7-0.7-1.7-1.6C23.4,59.3,23.4,43.6,23.4,43.6z"/>
				</g>
				<g>
					<path class="st1" d="M45.8,43.5c0-0.9,0.7-1.7,1.7-1.7s1.7,0.7,1.7,1.7v6.3H58v-6.3c0-0.9,0.7-1.7,1.7-1.7s1.7,0.7,1.7,1.7
						v15.7c0,0.9-0.7,1.7-1.7,1.7S58,60.1,58,59.2v-6.4h-9v6.4c0,0.9-0.7,1.7-1.7,1.7c-0.9,0-1.7-0.7-1.7-1.7L45.8,43.5L45.8,43.5z"
						/>
				</g>
				<g>
					<path class="st1" d="M66.5,51.4L66.5,51.4c0-5.3,4-9.7,9.8-9.7c5.7,0,9.7,4.4,9.7,9.6v0.1c0,5.3-4,9.7-9.8,9.7
						C70.6,61,66.5,56.7,66.5,51.4z M82.6,51.4L82.6,51.4c0-3.7-2.6-6.7-6.4-6.7c-3.7,0-6.3,3-6.3,6.6v0.1c0,3.6,2.6,6.6,6.4,6.6
						C80.1,57.9,82.6,55.1,82.6,51.4z"/>
				</g>
			</g>
			<g>
				<g>
					<path class="st1" d="M93.4,36.2c-0.3,0-0.6-0.1-0.8-0.2L59.3,13.1L26,36c-0.7,0.5-1.7,0.3-2.1-0.4c-0.5-0.7-0.3-1.7,0.4-2.1
						L58.4,9.8c0.5-0.3,1.2-0.3,1.7,0l34.1,23.6c0.7,0.5,0.8,1.4,0.4,2.1C94.3,36.1,93.8,36.2,93.4,36.2z"/>
				</g>
			</g>
			<g>
				<g>
					<path class="st1" d="M93.3,70.4H25c-0.4,0-0.9-0.2-1.2-0.5c-0.3-0.3-0.5-0.7-0.5-1.2l0.2-21.9c0-0.9,0.7-1.7,1.7-1.7l0,0
						c0.9,0,1.7,0.8,1.7,1.7L26.8,67h64.8V35c0-1,0.7-1.7,1.7-1.7S95,34,95,35v33.7C94.9,69.7,94.2,70.4,93.3,70.4z"/>
				</g>
			</g>
		</g>
		<path class="st1" d="M111,27.1c0-0.5,0.4-0.9,0.9-0.9h0.2c0.4,0,0.7,0.2,0.9,0.5l4.9,6.3v-6c0-0.5,0.4-0.8,0.8-0.8
			c0.5,0,0.9,0.4,0.9,0.8v8.2c0,0.5-0.4,0.9-0.8,0.9h-0.1c-0.4,0-0.7-0.2-0.9-0.5l-5-6.5v6.2c0,0.5-0.4,0.8-0.8,0.8
			c-0.5,0-0.9-0.4-0.9-0.8L111,27.1L111,27.1z"/>
		<path class="st1" d="M122.4,35.3v-8.1c0-0.5,0.4-0.9,0.9-0.9h5.7c0.4,0,0.8,0.3,0.8,0.8c0,0.4-0.3,0.8-0.8,0.8h-4.8v2.5h4.2
			c0.4,0,0.8,0.4,0.8,0.8s-0.3,0.8-0.8,0.8h-4.2v2.6h4.9c0.4,0,0.8,0.3,0.8,0.8c0,0.4-0.3,0.8-0.8,0.8h-5.8
			C122.8,36.1,122.4,35.7,122.4,35.3z"/>
		<path class="st1" d="M131.6,27.4c0-0.1-0.1-0.2-0.1-0.3c0-0.5,0.4-0.8,0.9-0.8c0.4,0,0.7,0.3,0.9,0.6l2.3,6.7l2.2-6.7
			c0.1-0.4,0.4-0.7,0.9-0.7h0.1c0.4,0,0.7,0.3,0.9,0.7l2.2,6.7l2.3-6.7c0.1-0.3,0.4-0.6,0.8-0.6c0.5,0,0.9,0.4,0.9,0.8
			c0,0.1,0,0.3-0.1,0.3l-2.9,8.1c-0.2,0.4-0.5,0.7-0.9,0.7h-0.2c-0.4,0-0.7-0.3-0.9-0.7l-2.2-6.4l-2.2,6.4c-0.2,0.4-0.5,0.7-0.9,0.7
			h-0.2c-0.4,0-0.7-0.3-0.9-0.7L131.6,27.4z"/>
		<path class="st1" d="M111,43.9c0-0.5,0.4-0.9,0.9-0.9s0.9,0.4,0.9,0.9v3.3h4.7v-3.3c0-0.5,0.4-0.9,0.9-0.9s0.9,0.4,0.9,0.9v8.2
			c0,0.5-0.4,0.9-0.9,0.9s-0.9-0.4-0.9-0.9v-3.3h-4.7v3.3c0,0.5-0.4,0.9-0.9,0.9s-0.9-0.4-0.9-0.9V43.9z"/>
		<path class="st1" d="M121.6,48L121.6,48c0-2.8,2.1-5.1,5.1-5.1s5.1,2.3,5.1,5l0,0c0,2.8-2.1,5.1-5.1,5.1S121.6,50.8,121.6,48z
			 M130,48L130,48c0-1.9-1.4-3.5-3.3-3.5s-3.3,1.6-3.3,3.5l0,0c0,1.9,1.4,3.5,3.3,3.5C128.6,51.5,130,49.9,130,48z"/>
		<path class="st1" d="M134.3,43.9c0-0.5,0.4-0.9,0.9-0.9h0.2c0.4,0,0.6,0.2,0.8,0.5l3,4.6l3-4.7c0.2-0.3,0.4-0.4,0.8-0.4h0.2
			c0.5,0,0.9,0.4,0.9,0.9v8.2c0,0.5-0.4,0.9-0.9,0.9s-0.9-0.4-0.9-0.9v-5.9l-2.4,3.6c-0.2,0.3-0.4,0.4-0.7,0.4s-0.5-0.2-0.7-0.4
			l-2.4-3.6v5.9c0,0.5-0.4,0.8-0.9,0.8s-0.8-0.4-0.8-0.8v-8.2C134.4,43.9,134.3,43.9,134.3,43.9z"/>
		<path class="st1" d="M146.7,52v-8c0-0.5,0.4-0.9,0.9-0.9h5.7c0.4,0,0.8,0.4,0.8,0.8c0,0.4-0.3,0.8-0.8,0.8h-4.8v2.5h4.2
			c0.4,0,0.8,0.3,0.8,0.8c0,0.4-0.3,0.8-0.8,0.8h-4.2v2.6h4.9c0.4,0,0.8,0.3,0.8,0.8c0,0.4-0.3,0.8-0.8,0.8h-5.8
			C147.1,52.9,146.7,52.5,146.7,52z"/>
		<path class="st1" d="M156,48L156,48c0-2.8,2.1-5.1,5.1-5.1s5.1,2.3,5.1,5l0,0c0,2.8-2.1,5.1-5.1,5.1C158.1,53.1,156,50.8,156,48z
			 M164.5,48L164.5,48c0-1.9-1.4-3.5-3.3-3.5c-1.9,0-3.3,1.6-3.3,3.5l0,0c0,1.9,1.4,3.5,3.3,3.5S164.5,49.9,164.5,48z"/>
		<path class="st1" d="M167.8,44.2c0-0.1-0.1-0.2-0.1-0.3c0-0.5,0.4-0.8,0.9-0.8c0.4,0,0.7,0.3,0.9,0.6l2.3,6.7l2.2-6.7
			c0.1-0.4,0.4-0.7,0.9-0.7h0.1c0.4,0,0.7,0.3,0.9,0.7l2.2,6.7l2.3-6.7c0.1-0.3,0.4-0.6,0.8-0.6c0.5,0,0.9,0.4,0.9,0.8
			c0,0.1,0,0.3-0.1,0.3l-2.9,8.1c-0.2,0.4-0.5,0.7-0.9,0.7H178c-0.4,0-0.7-0.3-0.9-0.7l-2.2-6.4l-2.2,6.4c-0.2,0.4-0.5,0.7-0.9,0.7
			h-0.2c-0.4,0-0.7-0.3-0.9-0.7L167.8,44.2z"/>
		<path class="st1" d="M184.1,43.9c0-0.5,0.4-0.9,0.9-0.9h0.2c0.4,0,0.7,0.2,0.9,0.5l4.9,6.3v-6c0-0.5,0.4-0.8,0.8-0.8
			c0.5,0,0.9,0.4,0.9,0.8V52c0,0.5-0.4,0.9-0.8,0.9h-0.1c-0.4,0-0.7-0.2-0.9-0.5l-5-6.5v6.2c0,0.5-0.4,0.8-0.8,0.8
			c-0.5,0-0.9-0.4-0.9-0.8L184.1,43.9L184.1,43.9z"/>
		<path class="st1" d="M195.5,52v-8c0-0.5,0.4-0.9,0.9-0.9h5.7c0.4,0,0.8,0.4,0.8,0.8c0,0.4-0.3,0.8-0.8,0.8h-4.8v2.5h4.2
			c0.4,0,0.8,0.3,0.8,0.8c0,0.4-0.3,0.8-0.8,0.8h-4.2v2.6h4.9c0.4,0,0.8,0.3,0.8,0.8c0,0.4-0.3,0.8-0.8,0.8h-5.8
			C195.9,52.9,195.5,52.5,195.5,52z"/>
		<path class="st1" d="M205.2,44c0-0.5,0.4-0.9,0.9-0.9h3.5c1.2,0,2.2,0.4,2.8,1c0.5,0.5,0.8,1.3,0.8,2.1l0,0c0,1.6-0.9,2.5-2.2,2.9
			l1.9,2.4c0.2,0.2,0.3,0.4,0.3,0.7c0,0.5-0.4,0.8-0.8,0.8c-0.4,0-0.6-0.2-0.8-0.4l-2.4-3H207v2.6c0,0.5-0.4,0.9-0.9,0.9
			s-0.9-0.4-0.9-0.9L205.2,44L205.2,44z M209.4,48c1.2,0,2-0.6,2-1.6l0,0c0-1-0.8-1.6-2-1.6h-2.5V48H209.4z"/>
		<path class="st1" d="M110.6,64.8L110.6,64.8c0-2.8,2.1-5.1,5.1-5.1s5.1,2.3,5.1,5l0,0c0,2.8-2.1,5.1-5.1,5.1
			C112.7,69.9,110.6,67.6,110.6,64.8z M119,64.8L119,64.8c0-1.9-1.4-3.5-3.3-3.5s-3.3,1.6-3.3,3.5l0,0c0,1.9,1.4,3.5,3.3,3.5
			C117.7,68.3,119,66.7,119,64.8z"/>
		<path class="st1" d="M123.3,60.7c0-0.5,0.4-0.9,0.9-0.9h0.2c0.4,0,0.7,0.2,0.9,0.5l4.9,6.3v-6c0-0.5,0.4-0.8,0.8-0.8
			c0.5,0,0.9,0.4,0.9,0.8v8.2c0,0.5-0.4,0.9-0.8,0.9H131c-0.4,0-0.7-0.2-0.9-0.5l-5-6.5v6.2c0,0.5-0.4,0.8-0.8,0.8
			c-0.5,0-0.9-0.4-0.9-0.8L123.3,60.7L123.3,60.7z"/>
		<path class="st1" d="M134.7,60.7c0-0.5,0.4-0.9,0.9-0.9s0.9,0.4,0.9,0.9v7.4h4.4c0.4,0,0.8,0.3,0.8,0.8c0,0.4-0.3,0.8-0.8,0.8
			h-5.3c-0.5,0-0.9-0.4-0.9-0.9L134.7,60.7L134.7,60.7z"/>
		<path class="st1" d="M144.7,65.9l-3.4-4.6c-0.1-0.2-0.2-0.4-0.2-0.6c0-0.5,0.4-0.8,0.9-0.8c0.4,0,0.6,0.2,0.8,0.5l2.7,3.9l2.8-3.9
			c0.2-0.3,0.5-0.5,0.8-0.5c0.5,0,0.8,0.4,0.8,0.8c0,0.2-0.1,0.4-0.2,0.6l-3.3,4.6V69c0,0.5-0.4,0.9-0.9,0.9s-0.9-0.4-0.9-0.9
			L144.7,65.9L144.7,65.9z"/>
	</g>
</g>
</svg>
