<?xml version="1.0" encoding="utf-8"?>
<!-- Generator: Adobe Illustrator 21.1.0, SVG Export Plug-In . SVG Version: 6.00 Build 0)  -->
<svg version="1.1" id="Layer_1" xmlns="http://www.w3.org/2000/svg" xmlns:xlink="http://www.w3.org/1999/xlink" x="0px" y="0px"
	 viewBox="0 0 150 150" style="enable-background:new 0 0 150 150;" xml:space="preserve">
<style type="text/css">
	.st0{fill:#FFFFFF;stroke:#4F5B69;stroke-miterlimit:10;}
	.st1{fill:none;stroke:#4F5B69;stroke-miterlimit:10;}
	.st2{enable-background:new    ;}
	.st3{fill:#4F5B69;}
	.st4{display:none;}
	.st5{display:inline;fill:#FFFFFF;stroke:#4F5B69;stroke-miterlimit:10;}
</style>
<path class="st0" d="M139.3,132.6h-124c-0.6,0-1-0.4-1-1V30.3c0-0.6,0.4-1,1-1h124c0.6,0,1,0.4,1,1v101.3
	C140.3,132.1,139.8,132.6,139.3,132.6z"/>
<path class="st0" d="M134.7,128.5h-124c-0.6,0-1-0.4-1-1V26.2c0-0.6,0.4-1,1-1h124c0.6,0,1,0.4,1,1v101.3
	C135.7,128.1,135.2,128.5,134.7,128.5z"/>
<path class="st0" d="M55.7,24.6c0,0-2.2-7.7-10.5-7.2c0,0-5.5-0.6-9.9,7.2v14.9c0,0,1.1,5.5,6.1,6.1H48c0,0,2.2-1.1,0-2.8
	c0,0-3.9,0.6-4.4-3.3V26.3c0,0,0-2.8,3.9-2.2l2.8,1.7h5.5L55.7,24.6L55.7,24.6z"/>
<path class="st0" d="M110.4,24.6c0,0-2.2-7.7-10.5-7.2c0,0-5.5-0.6-9.9,7.2v14.9c0,0,1.1,5.5,6.1,6.1h6.6c0,0,2.2-1.1,0-2.8
	c0,0-3.9,0.6-4.4-3.3V26.3c0,0,0-2.8,3.9-2.2l2.8,1.7h5.5L110.4,24.6L110.4,24.6z"/>
<line class="st1" x1="10.5" y1="50.7" x2="136.4" y2="50.7"/>
<g class="st2">
	<path class="st3" d="M45.7,110.2c4.1-1.4,17.2-8,20-21.7c-2,2.6-6.7,7.1-13,7.1c-5.6,0-10.1-4.5-10.1-11.3c0-8.8,7-15.9,14.3-15.9
		c7,0,10.6,6.2,10.6,13.9c0,19-16.7,27.4-21.5,29c-0.2,0.1-0.4,0-0.4-0.2l-0.1-0.4C45.4,110.4,45.5,110.3,45.7,110.2z M66.1,86.4
		c0.1-0.3,0.3-2,0.3-4c0-7.2-3.2-12.9-9.5-12.9c-6.8,0-13.2,6.5-13.2,14.8c0,6.1,4.1,10.2,9.2,10.2C60.8,94.5,65.7,86.9,66.1,86.4z"
		/>
	<path class="st3" d="M75.3,94.9c0-15.8,6.5-26.3,16.8-26.3c7,0,10.8,6.2,10.8,15.8c0,15.8-6.5,26.4-16.7,26.4
		C79,110.8,75.3,104.6,75.3,94.9z M101.7,84.5c0-9.1-3.4-14.8-9.8-14.8c-9.7,0-15.5,10.1-15.5,25.3c0,9.1,3.4,14.8,9.8,14.8
		C96,109.7,101.7,99.6,101.7,84.5z"/>
</g>
<g id="Layer_4" class="st4">
	<path class="st5" d="M109,140.4H41c-0.6,0-1-0.4-1-1V10.6c0-0.6,0.4-1,1-1h68c0.6,0,1,0.4,1,1v128.9C110,140,109.6,140.4,109,140.4
		z"/>
	<path class="st5" d="M102.7,123.8H47.3c-0.6,0-1-0.4-1-1V28.2c0-0.6,0.4-1,1-1h55.5c0.6,0,1,0.4,1,1v94.6
		C103.7,123.4,103.3,123.8,102.7,123.8z"/>
	<path class="st5" d="M87.5,20.8h-25c-1.3,0-2.3-1-2.3-2.3l0,0c0-1.3,1-2.3,2.3-2.3h25c1.3,0,2.3,1,2.3,2.3l0,0
		C89.8,19.8,88.8,20.8,87.5,20.8z"/>
	<circle class="st5" cx="75" cy="131.2" r="3.4"/>
</g>
<g id="Layer_3" class="st4">
	<path class="st5" d="M29.5,54.1L6.9,93c-0.1,0.1-0.1,0.3-0.1,0.4v42c0,0.6,0.4,1,1,1h133.9c0.6,0,1-0.4,1-1v-42
		c0-0.1,0-0.3-0.1-0.4l-21-38.9c-0.2-0.4-0.5-0.6-0.9-0.6H30.4C30.1,53.5,29.7,53.7,29.5,54.1z"/>
	<path class="st5" d="M95.3,93.8c-0.4,0-0.8,0.3-0.9,0.7c-2.7,8.1-10.4,13.9-19.4,13.9s-16.7-5.8-19.4-13.9
		c-0.1-0.4-0.5-0.7-0.9-0.7H7.8c-0.6,0-1,0.4-1,1V136c0,0.6,0.4,1,1,1h134.4c0.6,0,1-0.4,1-1V94.8c0-0.6-0.4-1-1-1H95.3z"/>
	<path class="st5" d="M85.9,69.8V14c0-0.6-0.4-1-1-1H66.2c-0.6,0-1,0.4-1,1v55.8c0,0.6-0.4,1-1,1H54.1c-0.9,0-1.3,1.1-0.7,1.7
		l21.2,21.2c0.4,0.4,1,0.4,1.4,0l20.7-21.2c0.6-0.6,0.2-1.7-0.7-1.7h-9C86.4,70.8,85.9,70.4,85.9,69.8z"/>
	<path class="st5" d="M116.8,110.5c0,0-3.6-3.6-7-0.8c0,0-4.2,3.1,0.5,8.3l6,6.2c0,0,0.5,0.5,1,0l6.5-6.8c0,0,3.6-4.4,0-7.8
		C123.8,109.7,120.9,106.9,116.8,110.5z"/>
</g>
</svg>
